<?xml version="1.0" encoding="utf-8"?>
<!-- Generator: Adobe Illustrator 26.0.3, SVG Export Plug-In . SVG Version: 6.00 Build 0)  -->
<svg version="1.1" id="Layer_1" xmlns="http://www.w3.org/2000/svg" xmlns:xlink="http://www.w3.org/1999/xlink" x="0px" y="0px"
	 viewBox="0 0 1080 1080" style="enable-background:new 0 0 1080 1080;" xml:space="preserve">
<style type="text/css">
	.st0{fill:url(#SVGID_1_);}
	.st1{fill:url(#SVGID_00000081629716548355367250000004467472510290795451_);}
	.st2{fill:url(#SVGID_00000109002129909187107530000000606685794235042954_);}
	.st3{fill:url(#SVGID_00000001621803325067921050000006061156981818669726_);}
	.st4{fill:url(#SVGID_00000073000702653584750150000006167047149271012013_);}
	.st5{fill:none;stroke:url(#SVGID_00000017511247038273483320000009088570654915199141_);stroke-width:3;stroke-miterlimit:10;}
	.st6{fill:none;stroke:url(#SVGID_00000090995532846402614180000006195294267589280946_);stroke-width:3;stroke-miterlimit:10;}
	.st7{display:none;}
	.st8{display:inline;fill:#0C2949;}
	.st9{display:inline;fill:none;}
	.st10{display:inline;}
</style>
<g>
	
		<linearGradient id="SVGID_1_" gradientUnits="userSpaceOnUse" x1="169.1992" y1="130.377" x2="169.6992" y2="130.377" gradientTransform="matrix(-0.866 0.5 -0.5 -0.866 1428.2284 167.869)">
		<stop  offset="0.2077" style="stop-color:#072029;stop-opacity:0"/>
		<stop  offset="0.2202" style="stop-color:#0C2531;stop-opacity:0.0931"/>
		<stop  offset="0.2441" style="stop-color:#162F46;stop-opacity:0.2727"/>
		<stop  offset="0.2769" style="stop-color:#1F3A68;stop-opacity:0.5184"/>
		<stop  offset="0.2944" style="stop-color:#213F7B;stop-opacity:0.65"/>
		<stop  offset="0.3617" style="stop-color:#1D4179;stop-opacity:0.6786"/>
		<stop  offset="0.5907" style="stop-color:#0F4871;stop-opacity:0.776"/>
		<stop  offset="0.808" style="stop-color:#034A6C;stop-opacity:0.8684"/>
		<stop  offset="1" style="stop-color:#004B6A;stop-opacity:0.95"/>
	</linearGradient>
	<path class="st0" d="M692.697,387.174L692.697,387.174c-3.035-5.257-9.756-7.058-15.013-4.023l-19.21,11.091
		c-15.415,8.9-24.907,20.372-28.473,34.423c-3.569,14.045-0.698,29.131,8.606,45.246c9.305,16.116,20.775,25.995,34.403,29.652
		c13.631,3.647,28.274,0.959,43.92-8.074l19.21-11.091c5.257-3.035,7.058-9.756,4.023-15.013v0l-94.93,0L692.697,387.174z"/>
	
		<linearGradient id="SVGID_00000178184805959233492280000010313923364396389545_" gradientUnits="userSpaceOnUse" x1="347.364" y1="599.6232" x2="614.7631" y2="599.6232">
		<stop  offset="0" style="stop-color:#174A71"/>
		<stop  offset="0.0238" style="stop-color:#2D5575"/>
		<stop  offset="0.0594" style="stop-color:#416278"/>
		<stop  offset="0.1014" style="stop-color:#4F6C7B"/>
		<stop  offset="0.1534" style="stop-color:#59747D"/>
		<stop  offset="0.2264" style="stop-color:#5F797E"/>
		<stop  offset="0.429" style="stop-color:#617B7F"/>
		<stop  offset="0.44" style="stop-color:#5A747D;stop-opacity:0.999"/>
		<stop  offset="0.4802" style="stop-color:#456377;stop-opacity:0.9955"/>
		<stop  offset="0.5263" style="stop-color:#335672;stop-opacity:0.9915"/>
		<stop  offset="0.5802" style="stop-color:#244C6E;stop-opacity:0.9868"/>
		<stop  offset="0.6469" style="stop-color:#19456B;stop-opacity:0.9809"/>
		<stop  offset="0.7404" style="stop-color:#12416A;stop-opacity:0.9727"/>
		<stop  offset="1" style="stop-color:#114069;stop-opacity:0.95"/>
	</linearGradient>
	<path style="fill:url(#SVGID_00000178184805959233492280000010313923364396389545_);" d="M576.13,503.748
		c-25.758-23.595-58.595-35.397-98.505-35.397H347.364v32.891l88.189,50.916v-10.99h33.172c18.066,0,32.091,4.994,42.072,14.968
		c9.974,9.981,14.968,24.271,14.968,42.881c0,18.608-5.057,33.109-15.17,43.487c-10.113,10.385-24.07,15.574-41.87,15.574h-33.172
		v-10.99l-88.189,50.916v32.891h132.284c38.563,0,70.724-12.471,96.482-37.42c25.751-24.942,38.633-56.901,38.633-95.875
		C614.763,558.633,601.881,527.35,576.13,503.748z M583.344,610.254v12.291h-38.922v-11.02l19.638-22.534h-19.567v-12.291h38.852
		v11.02l-19.638,22.534H583.344z"/>
	
		<linearGradient id="SVGID_00000055690678684955440940000005121014840212823741_" gradientUnits="userSpaceOnUse" x1="347.3426" y1="599.6232" x2="347.364" y2="599.6232">
		<stop  offset="0.5744" style="stop-color:#000000;stop-opacity:0"/>
		<stop  offset="0.7977" style="stop-color:#000000;stop-opacity:0.6512"/>
		<stop  offset="0.8184" style="stop-color:#222023;stop-opacity:0.6818"/>
		<stop  offset="0.8512" style="stop-color:#282B32;stop-opacity:0.7302"/>
		<stop  offset="0.8837" style="stop-color:#242E38;stop-opacity:0.7782"/>
		<stop  offset="0.9153" style="stop-color:#1B2E3C;stop-opacity:0.8249"/>
		<stop  offset="0.9458" style="stop-color:#0F2E3D;stop-opacity:0.8699"/>
		<stop  offset="0.9746" style="stop-color:#022D3E;stop-opacity:0.9125"/>
		<stop  offset="1" style="stop-color:#002D3F;stop-opacity:0.95"/>
	</linearGradient>
	<polygon style="fill:url(#SVGID_00000055690678684955440940000005121014840212823741_);" points="347.343,501.23 347.343,698.017 
		347.364,698.004 347.364,501.242 	"/>
	
		<linearGradient id="SVGID_00000043424481560088077260000018383139151226807958_" gradientUnits="userSpaceOnUse" x1="-141.8893" y1="599.6232" x2="135.2129" y2="599.6232">
		<stop  offset="0.5744" style="stop-color:#3B3292;stop-opacity:0"/>
		<stop  offset="0.5995" style="stop-color:#39378C;stop-opacity:0.0729"/>
		<stop  offset="0.6478" style="stop-color:#34417F;stop-opacity:0.2136"/>
		<stop  offset="0.7145" style="stop-color:#274566;stop-opacity:0.4078"/>
		<stop  offset="0.7963" style="stop-color:#05343A;stop-opacity:0.646"/>
		<stop  offset="0.7977" style="stop-color:#043439;stop-opacity:0.65"/>
	</linearGradient>
	<polygon style="fill:url(#SVGID_00000043424481560088077260000018383139151226807958_);" points="517.765,599.623 435.553,552.158 
		435.553,647.088 	"/>
	
		<linearGradient id="SVGID_00000101819760538316344230000015495377666021359496_" gradientUnits="userSpaceOnUse" x1="-141.8893" y1="599.6232" x2="-141.3893" y2="599.6232">
		<stop  offset="0.5744" style="stop-color:#174A71"/>
		<stop  offset="0.6309" style="stop-color:#295374"/>
		<stop  offset="0.7391" style="stop-color:#4C6A7B"/>
		<stop  offset="0.7977" style="stop-color:#617B7F"/>
		<stop  offset="1" style="stop-color:#617B7F"/>
	</linearGradient>
	<polygon style="fill:url(#SVGID_00000101819760538316344230000015495377666021359496_);" points="426.553,552.158 338.364,501.242 
		338.364,698.004 426.553,647.088 	"/>
	
		<linearGradient id="SVGID_00000114042006193401214780000011853726088555913354_" gradientUnits="userSpaceOnUse" x1="562.9648" y1="599.7723" x2="624.5366" y2="599.7723">
		<stop  offset="0.3901" style="stop-color:#000000;stop-opacity:0"/>
		<stop  offset="0.3926" style="stop-color:#0D0C0C;stop-opacity:0.004"/>
		<stop  offset="0.4111" style="stop-color:#2C2B31;stop-opacity:0.0335"/>
		<stop  offset="0.4319" style="stop-color:#31353E;stop-opacity:0.0667"/>
		<stop  offset="0.4545" style="stop-color:#2F3846;stop-opacity:0.1028"/>
		<stop  offset="0.4796" style="stop-color:#2A394C;stop-opacity:0.1427"/>
		<stop  offset="0.5078" style="stop-color:#213A4F;stop-opacity:0.1877"/>
		<stop  offset="0.5408" style="stop-color:#183A52;stop-opacity:0.2404"/>
		<stop  offset="0.5816" style="stop-color:#0C3954;stop-opacity:0.3054"/>
		<stop  offset="0.6389" style="stop-color:#043955;stop-opacity:0.3967"/>
		<stop  offset="0.7977" style="stop-color:#023955;stop-opacity:0.65"/>
		<stop  offset="0.8205" style="stop-color:#093C5E;stop-opacity:0.6838"/>
		<stop  offset="0.8489" style="stop-color:#0E3F64;stop-opacity:0.7259"/>
		<stop  offset="0.8889" style="stop-color:#104068;stop-opacity:0.7853"/>
		<stop  offset="1" style="stop-color:#114069;stop-opacity:0.95"/>
	</linearGradient>
	
		<path style="fill:none;stroke:url(#SVGID_00000114042006193401214780000011853726088555913354_);stroke-width:3;stroke-miterlimit:10;" d="
		M619.549,487.138c-36.205,49.301,60.005,135.408-55.666,224.971"/>
	
		<radialGradient id="SVGID_00000137098321707252335770000009588217525603956924_" cx="632.8657" cy="184.5859" r="10.2292" gradientTransform="matrix(-0.5 -0.866 0.866 -0.5 784.1837 1121.96)" gradientUnits="userSpaceOnUse">
		<stop  offset="0.3901" style="stop-color:#000000;stop-opacity:0"/>
		<stop  offset="0.3926" style="stop-color:#0D0C0C;stop-opacity:0.004"/>
		<stop  offset="0.4111" style="stop-color:#2C2B31;stop-opacity:0.0335"/>
		<stop  offset="0.4319" style="stop-color:#31353E;stop-opacity:0.0667"/>
		<stop  offset="0.4545" style="stop-color:#2F3846;stop-opacity:0.1028"/>
		<stop  offset="0.4796" style="stop-color:#2A394C;stop-opacity:0.1427"/>
		<stop  offset="0.5078" style="stop-color:#213A4F;stop-opacity:0.1877"/>
		<stop  offset="0.5408" style="stop-color:#183A52;stop-opacity:0.2404"/>
		<stop  offset="0.5816" style="stop-color:#0C3954;stop-opacity:0.3054"/>
		<stop  offset="0.6389" style="stop-color:#043955;stop-opacity:0.3967"/>
		<stop  offset="0.7977" style="stop-color:#023955;stop-opacity:0.65"/>
		<stop  offset="0.8205" style="stop-color:#093C5E;stop-opacity:0.6838"/>
		<stop  offset="0.8489" style="stop-color:#0E3F64;stop-opacity:0.7259"/>
		<stop  offset="0.8889" style="stop-color:#104068;stop-opacity:0.7853"/>
		<stop  offset="1" style="stop-color:#114069;stop-opacity:0.95"/>
	</radialGradient>
	
		<circle style="fill:none;stroke:url(#SVGID_00000137098321707252335770000009588217525603956924_);stroke-width:3;stroke-miterlimit:10;" cx="627.607" cy="481.589" r="8.729"/>
</g>
<g class="st7">
	<path class="st8" d="M277.524,821.058c0.32-0.977,0.594-2.295,0.777-4.004c0.137-1.709,0.229-3.174,0.229-4.395v-58.496
		c0-1.221-0.091-2.686-0.229-4.395c-0.183-1.709-0.457-3.027-0.777-4.004h19.981c3.978,0,7.361,1.514,10.196,4.492
		c2.789,3.027,4.207,6.689,4.207,10.938v45.215c0,2.783-0.64,5.322-1.92,7.52c-1.326,2.197-3.063,3.955-5.212,5.225
		c-2.195,1.27-4.618,1.904-7.27,1.904H277.524z M298.968,811c0.823-0.879,1.235-1.953,1.235-3.223v-47.998
		c0-1.221-0.411-2.295-1.235-3.223c-0.869-0.928-1.875-1.367-3.063-1.367h-5.624v57.178h5.624
		C297.094,812.367,298.1,811.927,298.968,811z"/>
	<path class="st8" d="M342.68,820.668l-1.783-15.869H329.74l-1.829,15.869h-13.488c0.686-1.221,1.417-3.662,2.149-7.324
		l9.922-67.969h17.604l9.922,67.969c0.732,3.613,1.463,6.055,2.149,7.324H342.68z M335.502,757.728h-0.411l-4.389,38.379h9.19
		L335.502,757.728z"/>
	<path class="st8" d="M357.769,820.668v-8.74l21.079-57.129h-13.26c-1.143,0-2.515,0.098-4.115,0.244
		c-1.6,0.195-2.835,0.488-3.704,0.83v-10.547h33.332v7.959l-21.353,57.91h13.534c1.143,0,2.469-0.098,4.069-0.293
		c1.6-0.146,2.835-0.439,3.749-0.781v10.547H357.769z"/>
	<path class="st8" d="M415.792,820.668c0.32-0.977,0.594-2.344,0.777-4.053c0.137-1.709,0.229-3.174,0.229-4.395v-58.447
		c0-1.221-0.091-2.734-0.229-4.443c-0.183-1.709-0.457-3.027-0.777-4.004h30.772v10.547c-0.914-0.342-2.149-0.635-3.749-0.83
		c-1.6-0.146-2.972-0.244-4.115-0.244h-10.196v23.389h13.26v8.691h-13.26v24.316H438.7c1.143,0,2.515-0.098,4.115-0.293
		c1.6-0.146,2.835-0.439,3.749-0.781v10.547H415.792z"/>
	<path class="st8" d="M450.679,820.668c0.32-0.977,0.594-2.344,0.777-4.053c0.137-1.709,0.229-3.174,0.229-4.395v-58.447
		c0-1.221-0.091-2.734-0.229-4.443c-0.183-1.709-0.457-3.027-0.777-4.004h12.757v65.869h10.196c1.143,0,2.469-0.098,4.069-0.293
		c1.6-0.146,2.835-0.439,3.749-0.781v10.547H450.679z"/>
	<path class="st8" d="M485.566,820.668c0.32-0.977,0.594-2.344,0.777-4.053c0.137-1.709,0.229-3.174,0.229-4.395v-58.447
		c0-1.221-0.091-2.734-0.229-4.443c-0.183-1.709-0.457-3.027-0.777-4.004h30.772v10.547c-0.914-0.342-2.149-0.635-3.749-0.83
		c-1.6-0.146-2.972-0.244-4.115-0.244h-10.196v23.389h13.26v8.691h-13.26v24.316h10.196c1.143,0,2.515-0.098,4.115-0.293
		c1.6-0.146,2.835-0.439,3.749-0.781v10.547H485.566z"/>
	<path class="st8" d="M535.588,821.791c-4.161,0-7.682-1.611-10.654-4.785c-2.972-3.174-4.481-7.031-4.481-11.475v-45.02
		c0-4.443,1.509-8.301,4.481-11.475c2.972-3.174,6.493-4.736,10.654-4.736h3.109c4.161,0,7.727,1.562,10.699,4.736
		c2.972,3.174,4.435,7.031,4.435,11.475v11.377l-10.379,2.734h-1.326v-15.527c0-1.465-0.503-2.734-1.463-3.76
		s-2.149-1.562-3.521-1.562s-2.561,0.537-3.521,1.562c-0.96,1.025-1.463,2.295-1.463,3.76v47.9c0,1.465,0.503,2.734,1.463,3.76
		c0.96,1.025,2.149,1.562,3.521,1.562s2.56-0.537,3.521-1.562s1.463-2.295,1.463-3.76v-15.283l10.334-2.734h1.372v16.553
		c0,4.443-1.463,8.301-4.435,11.475c-2.972,3.174-6.538,4.785-10.699,4.785H535.588z"/>
	<path class="st8" d="M568.28,820.668c0.594-1.562,0.914-4.004,1.006-7.324v-58.545h-3.475c-1.143,0-2.515,0.098-4.115,0.244
		c-1.6,0.195-2.835,0.488-3.749,0.879v-10.547h34.43v10.547c-0.914-0.391-2.149-0.684-3.749-0.879
		c-1.6-0.146-2.972-0.244-4.115-0.244h-3.475v58.545c0.091,3.32,0.411,5.762,1.006,7.324H568.28z"/>
	<path class="st8" d="M617.89,821.058v-28.32c0-1.025-0.366-1.904-1.097-2.539c-0.777-0.635-1.92-1.025-3.429-1.123h-5.395v23.584
		c0,1.221,0.091,2.686,0.274,4.395c0.137,1.709,0.412,3.027,0.732,4.004h-13.763c0.32-0.977,0.594-2.295,0.777-4.004
		c0.137-1.709,0.229-3.174,0.229-4.395v-58.496c0-1.221-0.091-2.686-0.229-4.395c-0.183-1.709-0.457-3.027-0.777-4.004h19.981
		c3.978,0,7.361,1.514,10.196,4.492c2.789,3.027,4.207,6.689,4.207,10.938v11.572c0,2.49-0.503,4.688-1.463,6.689
		c-1.006,2.002-2.378,3.711-4.069,5.029c1.783,1.025,3.155,2.539,4.115,4.492c0.96,1.953,1.417,4.15,1.417,6.592v17.09
		c0,1.221,0.091,2.686,0.274,4.395c0.137,1.709,0.412,3.027,0.732,4.004H617.89z M616.656,779.017
		c0.823-0.879,1.234-1.953,1.234-3.223v-16.016c0-1.221-0.411-2.295-1.234-3.223c-0.869-0.928-1.875-1.367-3.063-1.367h-5.624
		v25.195h5.624C614.781,780.385,615.787,779.945,616.656,779.017z"/>
	<path class="st8" d="M649.851,821.791c-4.161,0-7.682-1.611-10.654-4.785c-2.972-3.174-4.481-7.031-4.481-11.475v-45.02
		c0-4.443,1.509-8.301,4.481-11.475c2.972-3.174,6.493-4.736,10.654-4.736h3.109c4.161,0,7.727,1.562,10.699,4.736
		s4.435,7.031,4.435,11.475v45.02c0,4.443-1.463,8.301-4.435,11.475s-6.538,4.785-10.699,4.785H649.851z M654.926,810.756
		c0.96-1.025,1.463-2.295,1.463-3.76v-47.9c0-1.465-0.503-2.734-1.463-3.76c-0.96-1.025-2.149-1.562-3.521-1.562
		s-2.515,0.537-3.475,1.562s-1.463,2.295-1.463,3.76v47.9c0,1.465,0.503,2.734,1.463,3.76s2.103,1.562,3.475,1.562
		S653.966,811.781,654.926,810.756z"/>
	<path class="st8" d="M696.717,820.668l-12.848-52.344l-0.823,0.195l1.92,14.648v29.053c0,1.221,0.091,2.686,0.274,4.395
		c0.137,1.709,0.411,3.076,0.732,4.053H672.21c0.366-0.977,0.64-2.344,0.823-4.053c0.137-1.709,0.229-3.174,0.229-4.395v-58.447
		c0-1.221-0.091-2.734-0.229-4.443c-0.183-1.709-0.457-3.027-0.823-4.004h13.763l12.025,49.072l0.823-0.195l-1.92-14.697v-25.732
		c0-1.221-0.091-2.734-0.229-4.443c-0.183-1.709-0.457-3.027-0.777-4.004h13.763c-0.366,0.977-0.64,2.295-0.777,4.004
		c-0.183,1.709-0.274,3.223-0.274,4.443v58.447c0,1.221,0.091,2.686,0.274,4.395c0.137,1.709,0.411,3.076,0.777,4.053H696.717z"/>
	<path class="st8" d="M713.772,821.058c0.32-0.977,0.594-2.295,0.777-4.004c0.137-1.709,0.229-3.174,0.229-4.395v-58.496
		c0-1.221-0.091-2.686-0.229-4.395c-0.183-1.709-0.457-3.027-0.777-4.004h13.717c-0.32,0.977-0.594,2.295-0.732,4.004
		c-0.183,1.709-0.274,3.174-0.274,4.395v58.496c0,1.221,0.091,2.686,0.274,4.395c0.137,1.709,0.411,3.027,0.732,4.004H713.772z"/>
	<path class="st8" d="M746.739,821.791c-4.161,0-7.682-1.611-10.654-4.785c-2.972-3.174-4.481-7.031-4.481-11.475v-45.02
		c0-4.443,1.509-8.301,4.481-11.475c2.972-3.174,6.493-4.736,10.654-4.736h3.109c4.161,0,7.727,1.562,10.699,4.736
		c2.972,3.174,4.435,7.031,4.435,11.475v11.377l-10.379,2.734h-1.326v-15.527c0-1.465-0.503-2.734-1.463-3.76
		s-2.149-1.562-3.521-1.562s-2.561,0.537-3.521,1.562c-0.96,1.025-1.463,2.295-1.463,3.76v47.9c0,1.465,0.503,2.734,1.463,3.76
		c0.96,1.025,2.149,1.562,3.521,1.562s2.56-0.537,3.521-1.562s1.463-2.295,1.463-3.76v-15.283l10.334-2.734h1.372v16.553
		c0,4.443-1.463,8.301-4.435,11.475c-2.972,3.174-6.538,4.785-10.699,4.785H746.739z"/>
	<path class="st8" d="M784.232,821.791c-4.161,0-7.682-1.611-10.654-4.785c-2.972-3.174-4.481-7.031-4.481-11.475v-10.596
		l10.379-2.734h1.326v14.795c0,1.465,0.503,2.734,1.463,3.76s2.149,1.562,3.521,1.562c1.326,0,2.515-0.537,3.475-1.562
		c0.96-1.025,1.463-2.295,1.463-3.76v-9.375c0-1.318-0.183-2.441-0.594-3.369c-0.411-0.879-1.28-2.002-2.698-3.32
		s-2.835-2.686-4.252-4.004l-8.505-8.057c-0.686-0.635-1.463-1.416-2.332-2.441c-2.149-2.49-3.246-5.518-3.246-9.082v-6.836
		c0-4.443,1.509-8.301,4.481-11.475c2.972-3.174,6.493-4.736,10.654-4.736h3.109c4.161,0,7.727,1.562,10.699,4.736
		s4.435,7.031,4.435,11.475v8.789l-10.379,2.686h-1.372v-12.891c0-1.465-0.503-2.734-1.463-3.76
		c-0.96-1.025-2.149-1.562-3.475-1.562c-1.372,0-2.56,0.537-3.521,1.562s-1.463,2.295-1.463,3.76v8.203
		c0,1.123,0.183,2.051,0.549,2.832c0.366,0.83,1.326,1.953,2.835,3.369l13.626,12.891c0.777,0.732,1.555,1.611,2.24,2.588
		c0.686,1.025,1.28,2.148,1.737,3.467s0.686,2.832,0.686,4.541v8.545c0,4.443-1.463,8.301-4.435,11.475s-6.538,4.785-10.699,4.785
		H784.232z"/>
</g>
<g class="st7">
	<rect x="1102.202" y="696.518" class="st9" width="543.396" height="72.915"/>
	<path class="st10" d="M1127.744,708.205c-2.523,2.278-4.2,4.355-5.031,6.231c-0.83,1.877-1.038,3.601-0.623,5.169
		c0.416,1.569,1.354,3.023,2.816,4.361c1.461,1.339,3.223,2.608,5.284,3.809c2.062,1.199,4.308,2.369,6.738,3.508
		s4.839,2.292,7.224,3.461c2.383,1.17,4.638,2.377,6.761,3.623s3.884,2.601,5.284,4.062c1.4,1.462,2.347,3.054,2.839,4.776
		c0.492,1.724,0.292,3.631-0.6,5.724c-0.801,1.938-2.069,3.315-3.808,4.131s-3.731,1.216-5.977,1.2
		c-2.247-0.016-4.646-0.377-7.201-1.085c-2.554-0.708-5.053-1.631-7.5-2.769c-2.445-1.139-4.73-2.424-6.854-3.854
		s-3.877-2.869-5.262-4.315c-0.553-0.584-0.984-1.177-1.292-1.777c-0.308-0.6-0.2-1.285,0.323-2.053
		c0.307-0.4,0.6-0.615,0.877-0.646c0.277-0.03,0.546,0.031,0.808,0.185c0.261,0.154,0.522,0.376,0.784,0.669
		s0.516,0.561,0.762,0.809c1.293,1.229,2.83,2.438,4.615,3.623c1.785,1.184,3.716,2.253,5.793,3.207
		c2.076,0.953,4.215,1.746,6.415,2.377s4.362,1.008,6.485,1.131c2.061,0.123,3.691-0.016,4.892-0.416s2.008-0.961,2.423-1.684
		c0.416-0.724,0.469-1.562,0.162-2.516c-0.309-0.955-0.924-1.924-1.847-2.908c-1.292-1.354-2.854-2.569-4.685-3.646
		c-1.831-1.076-3.785-2.1-5.861-3.068c-2.077-0.97-4.216-1.931-6.416-2.885c-2.199-0.953-4.322-1.977-6.369-3.069
		c-2.046-1.092-3.945-2.3-5.699-3.623s-3.216-2.831-4.385-4.522c-1.447-2.093-2.139-4.262-2.077-6.508s0.669-4.455,1.823-6.623
		c1.154-2.17,2.73-4.262,4.73-6.277s4.223-3.831,6.67-5.446c2.445-1.615,4.984-3,7.615-4.153c2.631-1.154,5.146-1.962,7.546-2.424
		c2.123-0.399,4.246-0.393,6.369,0.023c2.123,0.415,4.062,1.185,5.815,2.308c1.754,1.124,3.23,2.593,4.431,4.407
		c1.2,1.816,1.923,3.924,2.169,6.323c0.246,2.4-0.084,5.069-0.992,8.008s-2.577,6.085-5.008,9.438
		c-0.123,0.154-0.361,0.516-0.715,1.084c-0.354,0.57-0.754,1.108-1.2,1.616c-0.446,0.507-0.907,0.877-1.385,1.107
		c-0.478,0.231-0.885,0.101-1.223-0.392c-0.185-0.339-0.271-0.662-0.254-0.97c0.015-0.308,0.093-0.601,0.23-0.877
		c0.139-0.276,0.315-0.546,0.53-0.808s0.416-0.516,0.601-0.762c2.338-2.799,4.046-5.461,5.123-7.984s1.639-4.838,1.685-6.946
		c0.047-2.107-0.361-3.97-1.223-5.585c-0.862-1.615-2.085-2.914-3.67-3.9c-1.584-0.984-3.469-1.607-5.653-1.869
		c-2.185-0.26-4.554-0.084-7.108,0.531c-2.554,0.616-5.254,1.693-8.1,3.23C1133.506,703.514,1130.636,705.591,1127.744,708.205z"/>
	<path class="st10" d="M1212.066,730.775c0.369,0.246,0.445,0.584,0.23,1.016c-0.738,1.415-1.576,2.73-2.516,3.945
		c-0.938,1.217-1.914,2.27-2.93,3.162s-2.031,1.6-3.047,2.123s-1.955,0.784-2.814,0.784c-0.893,0-1.67-0.308-2.332-0.923
		s-1.131-1.615-1.406-3c-0.186-0.893-0.293-1.931-0.324-3.115s-0.123-2.314-0.277-3.393c-0.154-1.076-0.422-2.031-0.807-2.861
		c-0.385-0.831-1.023-1.354-1.916-1.569c-0.861-0.215-1.754-0.069-2.676,0.438c-0.924,0.508-1.785,1.154-2.586,1.938
		s-1.531,1.623-2.191,2.515c-0.662,0.894-1.178,1.616-1.547,2.17c-0.277,0.432-0.531,0.73-0.762,0.9
		c-0.23,0.169-0.5,0.223-0.807,0.161c-0.277-0.062-0.531-0.107-0.762-0.139c-0.23-0.03-0.471-0.062-0.717-0.093l-0.137-0.045h-0.094
		c-0.646-0.093-0.922-0.478-0.83-1.154c0.215-1.139,0.361-2.407,0.438-3.808c0.078-1.399-0.115-3.023-0.576-4.87
		c-0.154-0.553-0.322-1.021-0.508-1.407c-0.184-0.384-0.461-0.577-0.83-0.577c-0.432,0-0.955,0.27-1.57,0.809
		c-0.615,0.538-1.27,1.23-1.961,2.076c-0.691,0.847-1.393,1.785-2.1,2.815c-0.709,1.031-1.369,2.024-1.984,2.978
		c-0.616,0.953-1.162,1.822-1.639,2.607c-0.478,0.785-0.809,1.361-0.992,1.73c-0.277,0.523-0.631,0.908-1.062,1.154
		c-0.431,0.246-0.907,0.339-1.43,0.277c-0.124-0.031-0.225-0.047-0.301-0.047c-0.077,0-0.131,0-0.161,0h-0.046
		c-1.139-0.185-1.615-0.846-1.432-1.984c0.4-2.216,0.838-4.415,1.316-6.6c0.477-2.186,1.021-4.369,1.638-6.555
		c0.185-0.707,0.538-1.154,1.062-1.338c0.523-0.186,1.092-0.277,1.708-0.277c1.138,0.062,1.569,0.646,1.292,1.754
		c-0.523,1.785-0.984,3.57-1.385,5.354c-0.4,1.785-0.77,3.585-1.107,5.4c0.369-0.646,0.83-1.423,1.385-2.331
		c0.554-0.907,1.161-1.853,1.822-2.839c0.662-0.984,1.377-1.969,2.146-2.953s1.547-1.861,2.332-2.631
		c0.783-0.769,1.584-1.392,2.398-1.869c0.816-0.477,1.594-0.715,2.332-0.715c0.615,0,1.168,0.154,1.66,0.461
		c0.678,0.4,1.186,0.992,1.523,1.777c0.338,0.784,0.57,1.654,0.693,2.607c0.121,0.954,0.16,1.961,0.115,3.023
		c-0.047,1.061-0.131,2.084-0.254,3.068c0.553-0.83,1.168-1.691,1.846-2.584c0.676-0.893,1.408-1.708,2.191-2.446
		c0.785-0.739,1.623-1.346,2.516-1.823c0.893-0.477,1.816-0.715,2.77-0.715c0.492,0,0.939,0.062,1.338,0.184
		c1.23,0.309,2.178,0.885,2.84,1.731c0.66,0.847,1.145,1.808,1.453,2.884c0.307,1.078,0.516,2.216,0.623,3.416
		s0.209,2.301,0.301,3.3c0.092,1.001,0.254,1.839,0.484,2.516s0.639,1.046,1.223,1.107c0.615,0.062,1.293-0.122,2.031-0.554
		c0.738-0.431,1.484-1,2.238-1.707c0.754-0.708,1.484-1.516,2.191-2.424c0.709-0.907,1.309-1.792,1.801-2.654
		C1211.436,730.59,1211.727,730.529,1212.066,730.775z"/>
	<path class="st10" d="M1242.666,731.006c0.369,0.277,0.43,0.615,0.184,1.016c-0.615,0.861-1.346,1.793-2.191,2.792
		c-0.846,1-1.77,1.9-2.77,2.7c-1,0.801-2.047,1.4-3.139,1.8c-1.092,0.4-2.207,0.431-3.346,0.093
		c-1.047-0.339-1.877-0.861-2.492-1.57c-0.615-0.707-1.078-1.522-1.385-2.445c-0.309-0.924-0.492-1.923-0.555-3
		c-0.061-1.077-0.045-2.139,0.047-3.186c-1.17,1.662-2.5,3.201-3.992,4.616s-3.178,2.478-5.055,3.185
		c-0.523,0.215-1.084,0.385-1.684,0.508s-1.193,0.161-1.777,0.115c-0.584-0.047-1.139-0.185-1.662-0.416
		c-0.523-0.23-0.969-0.606-1.338-1.131c-0.77-1.076-1.107-2.383-1.016-3.922c0.094-1.539,0.508-3.1,1.246-4.686
		c0.738-1.584,1.746-3.092,3.023-4.522s2.723-2.592,4.338-3.485c1.617-0.892,3.348-1.399,5.193-1.522
		c1.846-0.122,3.707,0.323,5.584,1.339c0.4-0.215,0.785-0.308,1.154-0.277c0.584,0.092,0.977,0.346,1.178,0.762
		c0.199,0.415,0.283,0.885,0.254,1.407c-0.031,0.524-0.117,1.055-0.254,1.593c-0.139,0.539-0.24,0.992-0.301,1.361
		c-0.186,0.861-0.369,1.861-0.555,3c-0.184,1.139-0.246,2.27-0.184,3.393c0.061,1.123,0.299,2.162,0.715,3.115
		c0.416,0.954,1.146,1.678,2.193,2.169c0.645,0.308,1.314,0.362,2.008,0.161c0.691-0.199,1.375-0.553,2.053-1.061
		c0.676-0.508,1.316-1.108,1.916-1.801c0.6-0.691,1.146-1.361,1.639-2.008c0.307-0.398,0.629-0.445,0.969-0.139V731.006z
		 M1227.48,725.836c0.123-0.676,0.225-1.238,0.301-1.684c0.076-0.446,0.162-0.869,0.254-1.27c0.092-0.399,0.154-0.677,0.186-0.831
		c-0.895-0.369-1.824-0.522-2.793-0.462c-0.969,0.062-1.932,0.271-2.885,0.623c-0.955,0.354-1.861,0.824-2.723,1.408
		c-0.863,0.585-1.615,1.23-2.262,1.938c-0.277,0.308-0.594,0.747-0.947,1.315c-0.354,0.57-0.676,1.186-0.969,1.846
		c-0.293,0.662-0.516,1.332-0.67,2.008c-0.154,0.678-0.168,1.285-0.045,1.823c0.123,0.539,0.406,0.946,0.854,1.224
		c0.445,0.276,1.146,0.369,2.1,0.276c0.953-0.122,1.893-0.462,2.816-1.015c0.922-0.555,1.799-1.23,2.631-2.031
		c0.83-0.8,1.607-1.654,2.33-2.562S1226.988,726.668,1227.48,725.836z"/>
	<path class="st10" d="M1265.004,721.775c0.43,0.062,0.568,0.293,0.416,0.691c-0.74,1.816-1.609,3.608-2.609,5.377
		c-1,1.77-2.053,3.455-3.16,5.055s-2.246,3.068-3.416,4.407s-2.316,2.478-3.438,3.415c-1.125,0.939-2.186,1.631-3.186,2.077
		s-1.9,0.577-2.699,0.393c-0.617-0.154-1.102-0.462-1.455-0.923c-0.354-0.462-0.615-1-0.783-1.615
		c-0.17-0.615-0.262-1.262-0.277-1.939c-0.016-0.676-0.008-1.307,0.023-1.892c0.029-0.585,0.068-1.077,0.115-1.478
		c0.045-0.398,0.053-0.63,0.021-0.691c-0.154-0.339-0.414-0.592-0.783-0.762c-0.369-0.169-0.762-0.323-1.178-0.462
		c-0.416-0.138-0.814-0.308-1.199-0.507c-0.385-0.201-0.686-0.485-0.9-0.854c-0.4-0.708-0.639-1.538-0.715-2.492
		c-0.078-0.954-0.031-1.938,0.139-2.954c0.168-1.016,0.453-2.031,0.854-3.046c0.398-1.016,0.869-1.931,1.406-2.746
		c0.539-0.815,1.139-1.5,1.801-2.054c0.662-0.555,1.33-0.877,2.008-0.97c1.23-0.185,2.291,0.185,3.186,1.108
		c0.859,0.922,1.168,2,0.922,3.23c-0.123,0.861-0.385,1.685-0.785,2.469c-0.398,0.785-0.838,1.516-1.314,2.192
		s-0.955,1.292-1.432,1.847c-0.477,0.553-0.854,1.031-1.131,1.43c0.277,0.124,0.562,0.231,0.855,0.324
		c0.291,0.092,0.576,0.2,0.854,0.322c0.277,0.123,0.531,0.301,0.762,0.531s0.406,0.547,0.529,0.945
		c0.154,0.463,0.238,0.939,0.254,1.432s0.016,0.992,0,1.5s-0.029,1.008-0.045,1.5s0.023,0.984,0.115,1.477
		c0.061,0.34,0.123,0.686,0.184,1.039c0.062,0.354,0.34,0.53,0.832,0.53c0.461,0,0.906-0.107,1.338-0.323
		c0.43-0.215,0.854-0.477,1.27-0.784s0.799-0.638,1.154-0.993c0.354-0.353,0.684-0.684,0.992-0.992
		c2.029-2.123,3.838-4.368,5.422-6.738c1.586-2.369,2.947-4.893,4.086-7.568c0.184-0.4,0.49-0.569,0.922-0.508H1265.004z
		 M1244.143,729.021c0.338-0.369,0.807-0.869,1.408-1.5c0.6-0.631,1.168-1.293,1.707-1.984c0.537-0.693,0.977-1.4,1.314-2.123
		c0.34-0.723,0.432-1.362,0.277-1.916l-0.277-0.185c-0.676-0.093-1.354-0.015-2.029,0.231c-0.4,0.276-0.801,0.723-1.201,1.338
		s-0.73,1.292-0.992,2.031c-0.262,0.738-0.432,1.477-0.508,2.215S1243.865,728.498,1244.143,729.021z"/>
	<path class="st10" d="M1287.25,708.437c-1.846,0.093-3.686,0.224-5.516,0.393c-1.832,0.169-3.67,0.377-5.516,0.623
		c-1.416,2.123-2.869,4.208-4.361,6.253c-1.492,2.047-3.055,4.055-4.686,6.023c-0.215,0.801-0.445,1.832-0.691,3.093
		c-0.246,1.262-0.469,2.639-0.67,4.131c-0.199,1.493-0.361,3.038-0.484,4.638c-0.123,1.601-0.17,3.124-0.139,4.57
		s0.162,2.762,0.393,3.945c0.23,1.185,0.576,2.115,1.039,2.793c0.184,0.276,0.414,0.484,0.691,0.623s0.547,0.276,0.809,0.415
		c0.26,0.139,0.469,0.315,0.623,0.53c0.152,0.215,0.215,0.523,0.184,0.924c-0.092,0.707-0.414,1.23-0.969,1.568
		c-0.553,0.339-1.17,0.508-1.846,0.508c-0.801,0-1.539-0.215-2.215-0.646c-0.924-0.616-1.609-1.661-2.055-3.139
		c-0.447-1.478-0.709-3.247-0.785-5.308s0.023-4.338,0.301-6.83c0.277-2.493,0.684-5.039,1.223-7.639s1.201-5.186,1.984-7.754
		c0.785-2.569,1.639-4.977,2.562-7.224c-2.34,0.4-4.646,0.894-6.924,1.478s-4.537,1.246-6.785,1.984
		c-0.061,0.031-0.121,0.054-0.184,0.068c-0.062,0.017-0.139,0.055-0.23,0.116c-0.215,0.123-0.416,0.185-0.6,0.185
		c-0.371,0-0.555-0.323-0.555-0.969c0.062-1.047,0.492-1.754,1.293-2.123c2.43-0.984,5-1.824,7.707-2.516
		c2.707-0.693,5.338-1.285,7.893-1.777c0.799-1.662,1.631-3.199,2.492-4.615c0.861-1.415,1.73-2.631,2.607-3.646
		s1.762-1.814,2.654-2.4c0.893-0.584,1.754-0.892,2.584-0.922c0.83,0,1.393,0.246,1.686,0.738c0.291,0.492,0.438,1.077,0.438,1.754
		s-0.1,1.369-0.299,2.076c-0.201,0.709-0.393,1.277-0.578,1.708c-0.277,0.616-0.576,1.239-0.9,1.869
		c-0.322,0.631-0.668,1.269-1.037,1.915c1.66-0.215,3.307-0.407,4.938-0.576s3.324-0.33,5.078-0.484
		c0.521-0.062,0.906,0.054,1.152,0.346c0.246,0.293,0.293,0.7,0.139,1.223c-0.062,0.123-0.092,0.23-0.092,0.323
		c-0.154,0.523-0.447,0.938-0.877,1.246C1288.295,708.236,1287.803,708.406,1287.25,708.437z M1274.096,709.775
		c-0.432,0.062-0.861,0.123-1.293,0.184c-0.43,0.062-0.861,0.124-1.291,0.186c-0.586,1.23-1.131,2.462-1.639,3.691
		c-0.508,1.231-0.979,2.493-1.408,3.785c0.154-0.185,0.408-0.531,0.762-1.039c0.354-0.507,0.785-1.107,1.293-1.799
		c0.508-0.693,1.068-1.47,1.684-2.331S1273.449,710.698,1274.096,709.775z M1275.25,703.683c-0.34,0.462-0.654,0.931-0.947,1.407
		c-0.293,0.479-0.592,0.963-0.898,1.455c0.521-0.062,1.045-0.131,1.568-0.209c0.523-0.076,1.045-0.145,1.568-0.207
		c0.555-0.893,1.07-1.738,1.547-2.539c0.477-0.799,0.869-1.529,1.178-2.191c0.307-0.662,0.529-1.215,0.668-1.662
		c0.139-0.445,0.131-0.762-0.023-0.945c-0.707,0.861-1.492,1.646-2.354,2.354C1276.695,701.853,1275.926,702.698,1275.25,703.683z"
		/>
	<path class="st10" d="M1307.742,732.067c-0.494,0.923-1.07,1.869-1.732,2.839c-0.662,0.969-1.377,1.869-2.145,2.699
		c-0.77,0.831-1.602,1.547-2.492,2.146c-0.895,0.6-1.848,0.992-2.863,1.177c-1.754,0.308-3.123,0.132-4.107-0.53
		s-1.738-1.593-2.262-2.793c-0.523-1.199-0.906-2.545-1.152-4.038c-0.248-1.492-0.508-2.907-0.785-4.246s-0.654-2.492-1.131-3.462
		c-0.479-0.969-1.223-1.515-2.238-1.639c-0.738-0.092-1.447,0.101-2.123,0.577c-0.678,0.478-1.277,0.946-1.801,1.407
		c-1.385,1.324-2.592,2.732-3.623,4.224c-1.031,1.493-1.945,2.862-2.746,4.108s-1.516,2.27-2.146,3.068
		c-0.631,0.801-1.254,1.17-1.869,1.107c-0.553-0.061-0.908-0.445-1.061-1.153c-0.154-0.708-0.123-1.754,0.092-3.138
		c0.215-1.385,0.592-3.139,1.131-5.262c0.537-2.123,1.191-4.646,1.961-7.57c0.154-0.522,0.432-0.914,0.832-1.176
		c0.398-0.262,0.861-0.347,1.385-0.254c0.061,0,0.115,0.008,0.16,0.022c0.047,0.017,0.1,0.022,0.162,0.022
		c0.523,0.093,0.9,0.316,1.131,0.67s0.27,0.793,0.115,1.315c-1.139,3.478-2.016,7.093-2.631,10.847
		c0.801-1.354,1.746-2.831,2.838-4.432c1.092-1.6,2.27-3.053,3.531-4.361c1.262-1.307,2.6-2.314,4.016-3.023
		c1.414-0.707,2.861-0.814,4.338-0.322c1.107,0.369,1.939,1.046,2.492,2.03c0.555,0.985,0.971,2.108,1.246,3.369
		c0.277,1.263,0.492,2.569,0.646,3.923c0.154,1.355,0.393,2.585,0.715,3.693c0.324,1.107,0.793,2.008,1.408,2.699
		c0.615,0.692,1.539,0.992,2.77,0.9c0.707-0.062,1.385-0.284,2.031-0.67c0.646-0.384,1.254-0.877,1.822-1.477
		c0.57-0.6,1.1-1.262,1.594-1.984c0.49-0.723,0.938-1.423,1.338-2.1c0.092-0.186,0.223-0.293,0.393-0.324
		c0.168-0.029,0.33,0.017,0.484,0.139C1307.863,731.345,1307.957,731.668,1307.742,732.067z"/>
	<path class="st10" d="M1332.203,721.59c0.521,0.093,0.645,0.354,0.369,0.785c-0.801,1.385-1.709,2.815-2.725,4.293
		c-1.014,1.477-2.092,2.923-3.23,4.338c-1.139,1.416-2.338,2.754-3.6,4.016s-2.539,2.369-3.83,3.322
		c-1.293,0.955-2.594,1.708-3.9,2.262c-1.309,0.555-2.578,0.831-3.809,0.831c-0.893,0-1.738-0.153-2.537-0.462
		c-1.324-0.491-2.256-1.385-2.793-2.677c-0.539-1.292-0.777-2.761-0.715-4.407c0.061-1.646,0.393-3.354,0.992-5.123
		s1.377-3.4,2.33-4.893s2.055-2.715,3.301-3.67c1.246-0.953,2.545-1.43,3.9-1.43c0.738,0,1.49,0.169,2.26,0.508
		c0.615,0.276,1.115,0.623,1.5,1.038s0.654,0.885,0.809,1.407c0.154,0.523,0.186,1.07,0.092,1.639
		c-0.092,0.57-0.338,1.131-0.738,1.685c-0.523,0.739-1.176,1.407-1.961,2.008s-1.623,1.161-2.516,1.685s-1.822,1-2.793,1.431
		c-0.969,0.432-1.9,0.847-2.791,1.247c-0.34,1.907-0.139,3.438,0.6,4.592s1.861,1.73,3.369,1.73c0.984,0,2.107-0.284,3.369-0.854
		s2.631-1.477,4.107-2.723s3.039-2.854,4.686-4.824c1.645-1.969,3.33-4.368,5.053-7.199c0.307-0.431,0.693-0.615,1.154-0.555
		H1332.203z M1319.371,722.836c-0.338-0.092-0.662-0.168-0.969-0.23c-0.309-0.061-0.615-0.092-0.924-0.092
		c-0.77,0-1.492,0.154-2.168,0.461c-0.678,0.309-1.293,0.716-1.848,1.224c-0.553,0.507-1.053,1.107-1.5,1.8
		c-0.445,0.692-0.838,1.408-1.176,2.146c0.615-0.186,1.338-0.445,2.17-0.785c0.83-0.338,1.66-0.73,2.492-1.177
		c0.83-0.446,1.615-0.938,2.354-1.478c0.738-0.537,1.291-1.1,1.66-1.684L1319.371,722.836z"/>
	<path class="st10" d="M1370.879,732.482c-1.447,1.016-2.908,1.962-4.385,2.839s-3,1.7-4.57,2.47
		c0.094,1.631-0.115,3.123-0.623,4.477s-1.199,2.516-2.076,3.484s-1.869,1.723-2.977,2.262c-1.107,0.537-2.232,0.808-3.369,0.808
		c-1.416,0-2.678-0.4-3.785-1.2c-0.678-0.492-1.092-1.055-1.246-1.685c-0.154-0.631-0.139-1.269,0.047-1.915
		c0.184-0.646,0.5-1.262,0.945-1.847c0.445-0.584,0.93-1.077,1.453-1.477c1.109-0.8,2.262-1.523,3.463-2.169
		c1.199-0.646,2.445-1.23,3.738-1.754c-0.246-1.293-0.623-2.546-1.131-3.762c-0.508-1.215-0.992-2.469-1.453-3.762
		c-4.34,3.723-9.047,6.754-14.123,9.092c0.244,1.263,0.26,2.509,0.045,3.738c-0.215,1.23-0.631,2.354-1.246,3.37
		c-0.615,1.015-1.424,1.884-2.424,2.607c-1,0.723-2.176,1.224-3.529,1.5c-0.492,0.093-1.078,0.139-1.754,0.139
		c-0.738,0-1.477-0.077-2.217-0.231c-0.738-0.154-1.391-0.415-1.961-0.784c-0.568-0.369-1-0.847-1.291-1.431
		c-0.293-0.585-0.348-1.323-0.162-2.215c0.215-0.955,0.678-1.801,1.385-2.539s1.523-1.392,2.445-1.961
		c0.924-0.569,1.9-1.069,2.932-1.5c1.029-0.432,1.977-0.832,2.838-1.201c-0.461-1.076-1.023-2.138-1.686-3.184
		c-0.66-1.046-1.314-2.092-1.961-3.139c-0.646-1.046-1.238-2.092-1.777-3.139c-0.537-1.046-0.914-2.107-1.131-3.185
		c-0.215-1.077-0.207-2.177,0.023-3.3s0.777-2.285,1.639-3.484c0.432-0.615,0.977-1.201,1.639-1.754
		c0.662-0.555,1.354-1.062,2.076-1.523s1.432-0.846,2.123-1.154c0.693-0.307,1.27-0.491,1.732-0.553
		c0.49-0.062,0.891,0.022,1.199,0.253c0.307,0.231,0.537,0.539,0.691,0.923c0.154,0.386,0.232,0.801,0.232,1.246
		c0,0.447-0.062,0.854-0.186,1.224c-0.215,0.8-0.562,1.539-1.039,2.216s-1.031,1.3-1.66,1.869c-0.631,0.569-1.293,1.092-1.984,1.568
		c-0.693,0.479-1.393,0.932-2.102,1.361c0.277,0.924,0.693,1.87,1.246,2.84c0.555,0.969,1.146,1.961,1.777,2.977
		s1.246,2.03,1.846,3.046c0.602,1.015,1.1,2.016,1.5,3c5.107-2.276,9.832-5.169,14.17-8.677c-0.678-1.938-0.893-3.924-0.646-5.954
		c0.154-0.923,0.463-1.808,0.924-2.653c0.461-0.847,0.992-1.593,1.592-2.238c0.6-0.646,1.23-1.162,1.893-1.547
		s1.285-0.577,1.869-0.577c0.492,0,0.877,0.124,1.154,0.37c0.799,0.615,1.238,1.384,1.314,2.307
		c0.076,0.924-0.068,1.893-0.438,2.908s-0.877,2.031-1.523,3.046c-0.646,1.016-1.293,1.908-1.939,2.677
		c0.463,1.631,1.008,3.224,1.639,4.777c0.631,1.555,1.131,3.146,1.5,4.777c2.707-1.077,5.23-2.416,7.57-4.016
		c0.277-0.186,0.553-0.277,0.83-0.277s0.568,0.108,0.877,0.323C1371.416,731.652,1371.432,732.083,1370.879,732.482z
		 M1327.494,745.59c0.738,0.555,1.678,0.832,2.814,0.832c0.77,0,1.555-0.132,2.354-0.393c0.801-0.262,1.523-0.616,2.17-1.062
		c0.646-0.445,1.154-0.984,1.523-1.615s0.523-1.314,0.461-2.054c-0.031-0.153-0.053-0.323-0.068-0.507
		c-0.016-0.186-0.055-0.369-0.115-0.555c-0.861,0.4-1.738,0.77-2.631,1.107c-0.893,0.34-1.738,0.693-2.539,1.062
		s-1.539,0.784-2.215,1.246c-0.678,0.461-1.262,1.016-1.754,1.661V745.59z M1339.402,716.329c-0.369,0.554-0.824,1.015-1.363,1.384
		c-0.537,0.369-1.084,0.716-1.637,1.039c-0.555,0.323-1.086,0.686-1.594,1.084c-0.508,0.4-0.898,0.908-1.176,1.523
		c0.492-0.185,1.037-0.445,1.639-0.784c0.6-0.339,1.176-0.73,1.73-1.177c0.553-0.445,1.045-0.931,1.477-1.454
		C1338.908,717.422,1339.217,716.883,1339.402,716.329z M1357.586,741.067c0.061-0.246,0.1-0.485,0.115-0.716
		s0.039-0.469,0.07-0.715c-0.432,0.185-1.125,0.461-2.078,0.83s-1.922,0.785-2.906,1.246c-0.986,0.462-1.855,0.947-2.609,1.455
		c-0.754,0.507-1.131,0.976-1.131,1.407c0.646,0.554,1.447,0.831,2.4,0.831c0.646,0,1.316-0.124,2.008-0.369
		c0.693-0.247,1.322-0.57,1.893-0.97c0.568-0.4,1.062-0.862,1.477-1.385C1357.24,742.16,1357.494,741.621,1357.586,741.067z
		 M1360.678,717.482c-0.984,0.369-1.77,1.085-2.354,2.146s-0.707,2.423-0.369,4.084c0.277-0.307,0.631-0.761,1.062-1.361
		c0.43-0.6,0.822-1.223,1.176-1.869s0.6-1.253,0.738-1.822S1360.986,717.698,1360.678,717.482z"/>
	<path class="st10" d="M1407.016,732.482c-1.6,1.078-3.369,1.984-5.307,2.723c-1.939,0.739-4.016,1.108-6.23,1.108
		c-1.662,0-3.324-0.246-4.986-0.738c0.709,1.908,1.301,3.946,1.777,6.115s0.832,4.376,1.062,6.623c0.23,2.245,0.314,4.5,0.254,6.762
		c-0.062,2.261-0.277,4.438-0.646,6.53c-0.523,2.8-1.285,4.808-2.285,6.023c-1,1.215-2.039,1.823-3.115,1.823
		c-0.984,0-1.908-0.423-2.77-1.27s-1.508-2.008-1.938-3.484c-0.4-1.292-0.646-2.8-0.738-4.523c-0.094-1.724-0.07-3.546,0.068-5.47
		c0.139-1.923,0.354-3.899,0.646-5.93c0.293-2.031,0.623-4,0.992-5.908c0.369-1.907,0.762-3.715,1.178-5.423
		c0.414-1.708,0.791-3.208,1.129-4.5c-0.461-0.739-0.568-1.522-0.322-2.354c0.246-0.86,0.77-1.461,1.57-1.799
		c0.43-1.416,1.014-3.123,1.752-5.123c0.74-2,1.594-4.115,2.562-6.347c0.969-2.23,2.031-4.47,3.186-6.716
		c1.152-2.245,2.383-4.292,3.691-6.139c1.307-1.846,2.668-3.392,4.084-4.638c1.416-1.247,2.846-2.008,4.293-2.284
		c1.076-0.186,1.922,0.062,2.539,0.738c0.615,0.677,0.945,1.654,0.992,2.93c0.045,1.277-0.23,2.809-0.832,4.593
		c-0.6,1.785-1.568,3.677-2.906,5.677c-1.34,2.001-3.086,4.062-5.238,6.186c-2.154,2.123-4.754,4.169-7.801,6.138
		c-0.031,0.031-0.055,0.046-0.07,0.046s-0.037,0.016-0.068,0.047l-0.322,0.23c-0.031,0-0.078,0.031-0.139,0.092
		c-0.4,1.047-0.777,2.094-1.131,3.139c-0.355,1.047-0.701,2.108-1.039,3.186c0.893,0.707,1.939,1.246,3.139,1.615
		s2.492,0.553,3.877,0.553c2.369,0,4.754-0.553,7.154-1.661c0.246-0.122,0.537-0.185,0.877-0.185c0.398,0,0.754,0.108,1.061,0.323
		c0.277,0.185,0.416,0.4,0.416,0.646C1407.432,732.083,1407.293,732.298,1407.016,732.482z M1389.523,766.082
		c0.584-0.184,1.084-0.777,1.5-1.776c0.416-1,0.73-2.284,0.947-3.854c0.215-1.569,0.322-3.347,0.322-5.331s-0.107-4.039-0.322-6.162
		c-0.217-2.123-0.547-4.254-0.992-6.392c-0.447-2.138-1.023-4.131-1.732-5.978c-0.275,1.078-0.607,2.492-0.992,4.246
		s-0.738,3.646-1.061,5.678c-0.324,2.031-0.578,4.107-0.762,6.23c-0.186,2.123-0.217,4.092-0.092,5.908
		c0.121,1.814,0.43,3.393,0.922,4.73S1388.508,765.621,1389.523,766.082z M1405.586,702.529c-1.139,0.893-2.246,2.076-3.324,3.553
		c-1.076,1.478-2.1,3.062-3.068,4.754c-0.969,1.693-1.854,3.393-2.654,5.101s-1.477,3.239-2.031,4.593
		c1.293-0.677,2.715-1.654,4.27-2.932c1.553-1.275,3.039-2.715,4.453-4.314c1.416-1.6,2.662-3.277,3.74-5.031
		c1.076-1.754,1.783-3.431,2.123-5.031c0.184-0.892,0.23-1.522,0.137-1.892c-0.092-0.37-0.307-0.554-0.645-0.554
		c-0.309,0-0.717,0.161-1.225,0.484C1406.855,701.582,1406.262,702.006,1405.586,702.529z"/>
	<path class="st10" d="M1427.277,731.975c-1.322,1.354-2.801,2.354-4.43,3c-1.633,0.646-3.369,0.678-5.217,0.093
		c-0.461,0.954-1.045,1.97-1.754,3.046c-0.707,1.078-1.5,2.055-2.377,2.932s-1.814,1.568-2.814,2.076s-2.023,0.67-3.07,0.484
		c-1.414-0.246-2.406-0.931-2.977-2.054c-0.568-1.122-0.846-2.431-0.83-3.923s0.262-3.053,0.738-4.685
		c0.477-1.631,1.053-3.1,1.73-4.407c0.676-1.309,1.385-2.332,2.123-3.07s1.385-0.953,1.939-0.646c0-0.708,0.068-1.407,0.207-2.101
		c0.139-0.691,0.361-1.338,0.67-1.938c0.307-0.601,0.707-1.139,1.199-1.615c0.492-0.478,1.076-0.854,1.754-1.131
		c1.076-0.4,2.031-0.308,2.861,0.276c0.83,0.585,1.484,1.5,1.961,2.746s0.746,2.739,0.809,4.478c0.061,1.738-0.154,3.53-0.646,5.377
		c1.107,0.707,2.23,1.038,3.369,0.992c1.139-0.047,2.215-0.408,3.23-1.085c0.492-0.308,0.971-0.308,1.432,0
		C1427.646,731.19,1427.678,731.576,1427.277,731.975z M1409.508,739.729c0.615,0.432,1.254,0.531,1.916,0.301
		c0.662-0.231,1.299-0.646,1.916-1.246c0.615-0.601,1.184-1.293,1.707-2.078c0.523-0.783,0.953-1.5,1.293-2.146
		c-1.293-0.708-2.4-1.615-3.324-2.724c-0.922-1.107-1.615-2.354-2.076-3.738c-0.092,0.186-0.285,0.531-0.578,1.039
		c-0.291,0.508-0.6,1.107-0.922,1.8c-0.324,0.692-0.631,1.446-0.924,2.262s-0.477,1.623-0.553,2.423
		c-0.078,0.801-0.008,1.562,0.207,2.285S1408.832,739.236,1409.508,739.729z M1418.094,730.082c0.521-1.969,0.684-3.614,0.484-4.938
		c-0.201-1.322-0.547-2.309-1.039-2.954s-1.039-0.938-1.639-0.877s-1.055,0.493-1.361,1.292c-0.215,0.585-0.262,1.217-0.139,1.893
		c0.123,0.678,0.369,1.347,0.738,2.008c0.369,0.662,0.814,1.309,1.34,1.938C1417,729.075,1417.539,729.621,1418.094,730.082z"/>
	<path class="st10" d="M1434.107,743.467c0.338,0.339,0.445,0.861,0.324,1.57c-0.154,0.615-0.479,1.076-0.971,1.385
		c-0.492,0.307-1.045,0.461-1.66,0.461c-0.523,0-1.016-0.115-1.479-0.346c-0.461-0.231-0.83-0.562-1.107-0.992
		c-0.523-0.832-0.73-1.654-0.623-2.47s0.324-1.616,0.646-2.4c0.324-0.784,0.639-1.569,0.947-2.354
		c0.307-0.784,0.383-1.562,0.23-2.331c-0.123-0.554-0.369-1.022-0.738-1.408c-0.369-0.384-0.785-0.73-1.246-1.037
		c-0.463-0.309-0.924-0.615-1.385-0.924c-0.463-0.307-0.848-0.676-1.154-1.107c-0.646-0.893-1.023-2.016-1.131-3.369
		s-0.008-2.707,0.301-4.062c0.307-1.354,0.822-2.592,1.545-3.715s1.592-1.899,2.607-2.33c0.463-0.186,0.924-0.277,1.385-0.277
		c0.77,0,1.492,0.215,2.17,0.646c0.523,0.369,0.924,0.846,1.199,1.43c0.277,0.586,0.4,1.186,0.369,1.801
		c-0.031,0.708-0.176,1.4-0.438,2.076c-0.262,0.678-0.586,1.332-0.969,1.962c-0.387,0.632-0.809,1.247-1.27,1.847
		c-0.463,0.6-0.908,1.162-1.34,1.684c0.432,0.34,0.9,0.64,1.408,0.9c0.508,0.262,0.961,0.594,1.361,0.992
		c0.709,0.709,1.162,1.454,1.361,2.238c0.201,0.785,0.246,1.57,0.139,2.354s-0.299,1.569-0.576,2.354
		c-0.277,0.784-0.523,1.545-0.738,2.284c-0.154,0.523-0.154,1.077,0,1.661S1433.707,743.066,1434.107,743.467z M1429.309,727.959
		c0.43-0.461,0.883-0.969,1.361-1.522c0.477-0.554,0.914-1.114,1.314-1.685c0.4-0.568,0.699-1.139,0.9-1.707
		c0.199-0.57,0.238-1.086,0.115-1.547l-0.277-0.185c-0.77,0-1.445,0.216-2.029,0.646c-0.586,0.432-1.039,0.97-1.363,1.616
		c-0.322,0.646-0.492,1.361-0.508,2.146C1428.807,726.506,1428.969,727.252,1429.309,727.959z"/>
	<path class="st10" d="M1469,708.205c-2.523,2.278-4.201,4.355-5.031,6.231c-0.83,1.877-1.039,3.601-0.623,5.169
		c0.416,1.569,1.354,3.023,2.814,4.361c1.461,1.339,3.225,2.608,5.285,3.809c2.061,1.199,4.309,2.369,6.738,3.508
		c2.432,1.139,4.838,2.292,7.223,3.461c2.385,1.17,4.639,2.377,6.762,3.623s3.885,2.601,5.285,4.062
		c1.4,1.462,2.346,3.054,2.838,4.776c0.492,1.724,0.293,3.631-0.6,5.724c-0.801,1.938-2.07,3.315-3.807,4.131
		c-1.74,0.815-3.732,1.216-5.979,1.2s-4.646-0.377-7.199-1.085c-2.555-0.708-5.055-1.631-7.5-2.769
		c-2.445-1.139-4.73-2.424-6.854-3.854s-3.877-2.869-5.262-4.315c-0.555-0.584-0.984-1.177-1.293-1.777
		c-0.307-0.6-0.199-1.285,0.324-2.053c0.307-0.4,0.6-0.615,0.877-0.646c0.275-0.03,0.545,0.031,0.807,0.185
		c0.262,0.154,0.523,0.376,0.785,0.669s0.516,0.561,0.762,0.809c1.293,1.229,2.83,2.438,4.615,3.623
		c1.783,1.184,3.715,2.253,5.793,3.207c2.076,0.953,4.215,1.746,6.414,2.377s4.361,1.008,6.484,1.131
		c2.062,0.123,3.693-0.016,4.893-0.416c1.201-0.4,2.008-0.961,2.424-1.684c0.416-0.724,0.469-1.562,0.162-2.516
		c-0.309-0.955-0.924-1.924-1.848-2.908c-1.291-1.354-2.854-2.569-4.684-3.646c-1.832-1.076-3.785-2.1-5.861-3.068
		c-2.078-0.97-4.217-1.931-6.416-2.885c-2.199-0.953-4.322-1.977-6.369-3.069c-2.047-1.092-3.945-2.3-5.699-3.623
		s-3.217-2.831-4.385-4.522c-1.447-2.093-2.139-4.262-2.078-6.508c0.062-2.246,0.67-4.455,1.824-6.623
		c1.152-2.17,2.73-4.262,4.73-6.277s4.223-3.831,6.67-5.446c2.445-1.615,4.984-3,7.615-4.153c2.631-1.154,5.145-1.962,7.545-2.424
		c2.123-0.399,4.246-0.393,6.369,0.023c2.123,0.415,4.062,1.185,5.816,2.308c1.754,1.124,3.23,2.593,4.43,4.407
		c1.201,1.816,1.924,3.924,2.17,6.323c0.246,2.4-0.086,5.069-0.992,8.008c-0.908,2.938-2.578,6.085-5.008,9.438
		c-0.123,0.154-0.361,0.516-0.715,1.084c-0.355,0.57-0.756,1.108-1.201,1.616c-0.445,0.507-0.908,0.877-1.385,1.107
		c-0.477,0.231-0.885,0.101-1.223-0.392c-0.184-0.339-0.27-0.662-0.254-0.97s0.092-0.601,0.23-0.877s0.316-0.546,0.531-0.808
		s0.416-0.516,0.6-0.762c2.338-2.799,4.047-5.461,5.123-7.984c1.078-2.523,1.639-4.838,1.686-6.946
		c0.045-2.107-0.363-3.97-1.223-5.585c-0.863-1.615-2.086-2.914-3.67-3.9c-1.586-0.984-3.469-1.607-5.654-1.869
		c-2.186-0.26-4.555-0.084-7.107,0.531c-2.555,0.616-5.254,1.693-8.1,3.23C1474.76,703.514,1471.891,705.591,1469,708.205z"/>
	<path class="st10" d="M1534.723,730.683c0.369,0.247,0.445,0.585,0.23,1.016c-0.4,0.738-0.924,1.608-1.568,2.607
		c-0.646,1.001-1.371,1.946-2.17,2.839c-0.801,0.893-1.662,1.654-2.584,2.284c-0.924,0.632-1.879,0.946-2.863,0.946
		c-0.83,0-1.545-0.27-2.145-0.808c-0.602-0.538-1.102-1.261-1.5-2.169c-0.4-0.908-0.701-1.962-0.9-3.162
		c-0.201-1.199-0.285-2.461-0.254-3.784c-1.662,2.216-3.4,3.923-5.215,5.123c-1.816,1.2-3.463,1.8-4.939,1.8
		c-1.262,0-2.277-0.461-3.047-1.385c-0.77-0.923-1.139-2.384-1.107-4.385c0.031-1.661,0.277-3.3,0.738-4.915
		c0.463-1.615,1-3.208,1.615-4.776c0.186-0.523,0.5-0.9,0.947-1.131c0.445-0.231,0.93-0.301,1.453-0.208h0.094l0.184,0.046h0.092
		c0.523,0.092,0.893,0.309,1.107,0.646c0.215,0.339,0.232,0.77,0.047,1.292c-0.4,1.077-0.793,2.208-1.178,3.393
		s-0.645,2.292-0.783,3.323s-0.123,1.938,0.045,2.723c0.17,0.785,0.594,1.315,1.27,1.592c0.277,0.124,0.631,0.186,1.062,0.186
		c0.707,0,1.438-0.223,2.191-0.67c0.754-0.445,1.484-0.999,2.193-1.661c0.707-0.661,1.367-1.368,1.984-2.123
		c0.615-0.754,1.137-1.423,1.568-2.008c0.186-0.923,0.408-1.839,0.67-2.746s0.561-1.808,0.9-2.7
		c0.398-1.045,1.215-1.492,2.445-1.338h0.139l0.277,0.046h0.139c0.521,0.062,0.869,0.247,1.037,0.554
		c0.17,0.309,0.131,0.723-0.115,1.246c-0.584,1.354-1,2.869-1.246,4.547c-0.246,1.677-0.314,3.246-0.207,4.707
		c0.107,1.462,0.393,2.685,0.854,3.669c0.461,0.985,1.092,1.478,1.893,1.478c0.707,0,1.529-0.446,2.469-1.339
		c0.939-0.892,2.023-2.399,3.254-4.522c0.246-0.4,0.539-0.477,0.877-0.231H1534.723z"/>
	<path class="st10" d="M1575.061,731.236c0.398,0.309,0.461,0.646,0.184,1.016c-0.893,1.139-1.893,2.192-3,3.162
		c-1.107,0.969-2.246,1.807-3.416,2.515s-2.361,1.27-3.576,1.685c-1.217,0.416-2.393,0.623-3.531,0.623
		c-0.984,0-1.908-0.161-2.77-0.484s-1.646-0.838-2.354-1.547c-0.984-0.953-1.631-2.092-1.938-3.414
		c-0.309-1.323-0.355-2.678-0.139-4.062c-1.047,1.262-2.186,2.5-3.416,3.716s-2.492,2.3-3.785,3.254
		c-1.291,0.954-2.584,1.724-3.877,2.308c-1.291,0.585-2.537,0.877-3.738,0.877c-1.508,0-2.846-0.538-4.016-1.615
		c-1.045-1.016-1.77-2.192-2.168-3.531c-0.4-1.338-0.539-2.73-0.416-4.177s0.469-2.868,1.039-4.269
		c0.568-1.4,1.322-2.654,2.262-3.762c0.938-1.107,2.014-2.016,3.23-2.724c1.215-0.708,2.516-1.077,3.9-1.107
		c0.799,0,1.43,0.185,1.893,0.554c0.461,0.369,0.791,0.824,0.992,1.361c0.199,0.539,0.299,1.115,0.299,1.73
		c0,0.616-0.076,1.17-0.23,1.662c-0.123,0.369-0.338,0.554-0.646,0.554c-0.246,0-0.445-0.1-0.6-0.3
		c-0.154-0.199-0.154-0.453,0-0.762c0.123-0.246,0.207-0.5,0.254-0.762c0.047-0.261-0.039-0.484-0.254-0.669
		c-1.107-0.03-2.146,0.208-3.115,0.716s-1.809,1.17-2.516,1.984c-0.707,0.815-1.246,1.738-1.615,2.77s-0.508,2.053-0.416,3.068
		c0.062,0.738,0.193,1.439,0.393,2.1c0.199,0.662,0.484,1.247,0.854,1.754c0.369,0.508,0.838,0.916,1.408,1.224
		c0.568,0.308,1.27,0.462,2.1,0.462c1.17,0,2.332-0.308,3.484-0.924c1.154-0.615,2.262-1.361,3.324-2.238
		c1.061-0.877,2.037-1.807,2.93-2.792c0.893-0.984,1.646-1.861,2.262-2.631c0.338-0.431,0.646-0.823,0.924-1.177
		s0.523-0.699,0.738-1.039c0.77-1.385,1.754-2.561,2.953-3.53c1.201-0.97,2.539-1.5,4.016-1.593
		c0.707-0.061,1.316,0.055,1.824,0.347c0.508,0.293,0.914,0.669,1.223,1.131c0.307,0.462,0.523,0.978,0.646,1.546
		c0.121,0.57,0.152,1.085,0.092,1.547c-0.031,0.492-0.246,0.738-0.646,0.738c-0.184,0-0.354-0.076-0.508-0.231
		c-0.154-0.153-0.215-0.384-0.184-0.692c0.029-0.276-0.008-0.515-0.115-0.715c-0.109-0.2-0.332-0.301-0.67-0.301
		c-0.277,0-0.691,0.093-1.246,0.277c-0.77,0.277-1.477,0.724-2.123,1.338c-0.646,0.617-1.17,1.301-1.57,2.055
		c-0.398,0.754-0.668,1.546-0.807,2.377c-0.139,0.83-0.107,1.623,0.092,2.377s0.584,1.424,1.154,2.008
		c0.568,0.584,1.361,1,2.377,1.246c0.307,0.062,0.607,0.115,0.9,0.161c0.291,0.046,0.607,0.069,0.945,0.069
		c1.723,0,3.424-0.484,5.1-1.453c1.678-0.97,3.162-2.193,4.455-3.67C1574.244,731.037,1574.629,730.99,1575.061,731.236z"/>
	<path class="st10" d="M1599.799,721.59c0.521,0.093,0.645,0.354,0.369,0.785c-0.801,1.385-1.709,2.815-2.725,4.293
		c-1.014,1.477-2.092,2.923-3.23,4.338c-1.139,1.416-2.338,2.754-3.6,4.016s-2.539,2.369-3.83,3.322
		c-1.293,0.955-2.594,1.708-3.9,2.262c-1.309,0.555-2.578,0.831-3.809,0.831c-0.893,0-1.738-0.153-2.537-0.462
		c-1.324-0.491-2.256-1.385-2.793-2.677c-0.539-1.292-0.777-2.761-0.715-4.407c0.061-1.646,0.393-3.354,0.992-5.123
		s1.377-3.4,2.33-4.893s2.055-2.715,3.301-3.67c1.246-0.953,2.545-1.43,3.9-1.43c0.738,0,1.49,0.169,2.26,0.508
		c0.615,0.276,1.115,0.623,1.5,1.038s0.654,0.885,0.809,1.407c0.154,0.523,0.186,1.07,0.092,1.639
		c-0.092,0.57-0.338,1.131-0.738,1.685c-0.523,0.739-1.176,1.407-1.961,2.008s-1.623,1.161-2.516,1.685s-1.822,1-2.793,1.431
		c-0.969,0.432-1.9,0.847-2.791,1.247c-0.34,1.907-0.139,3.438,0.6,4.592s1.861,1.73,3.369,1.73c0.984,0,2.107-0.284,3.369-0.854
		s2.631-1.477,4.107-2.723s3.039-2.854,4.686-4.824c1.645-1.969,3.33-4.368,5.053-7.199c0.307-0.431,0.693-0.615,1.154-0.555
		H1599.799z M1586.967,722.836c-0.338-0.092-0.662-0.168-0.969-0.23c-0.309-0.061-0.615-0.092-0.924-0.092
		c-0.77,0-1.492,0.154-2.168,0.461c-0.678,0.309-1.293,0.716-1.848,1.224c-0.553,0.507-1.053,1.107-1.5,1.8
		c-0.445,0.692-0.838,1.408-1.176,2.146c0.615-0.186,1.338-0.445,2.17-0.785c0.83-0.338,1.66-0.73,2.492-1.177
		c0.83-0.446,1.615-0.938,2.354-1.478c0.738-0.537,1.291-1.1,1.66-1.684L1586.967,722.836z"/>
	<path class="st10" d="M1638.475,732.482c-1.447,1.016-2.908,1.962-4.385,2.839s-3,1.7-4.57,2.47
		c0.094,1.631-0.115,3.123-0.623,4.477s-1.199,2.516-2.076,3.484s-1.869,1.723-2.977,2.262c-1.107,0.537-2.232,0.808-3.369,0.808
		c-1.416,0-2.678-0.4-3.785-1.2c-0.678-0.492-1.092-1.055-1.246-1.685c-0.154-0.631-0.139-1.269,0.047-1.915
		c0.184-0.646,0.5-1.262,0.945-1.847c0.445-0.584,0.93-1.077,1.453-1.477c1.109-0.8,2.262-1.523,3.463-2.169
		c1.199-0.646,2.445-1.23,3.738-1.754c-0.246-1.293-0.623-2.546-1.131-3.762c-0.508-1.215-0.992-2.469-1.453-3.762
		c-4.34,3.723-9.047,6.754-14.123,9.092c0.244,1.263,0.26,2.509,0.045,3.738c-0.215,1.23-0.631,2.354-1.246,3.37
		c-0.615,1.015-1.424,1.884-2.424,2.607c-1,0.723-2.176,1.224-3.529,1.5c-0.492,0.093-1.078,0.139-1.754,0.139
		c-0.738,0-1.477-0.077-2.217-0.231c-0.738-0.154-1.391-0.415-1.961-0.784c-0.568-0.369-1-0.847-1.291-1.431
		c-0.293-0.585-0.348-1.323-0.162-2.215c0.215-0.955,0.678-1.801,1.385-2.539s1.523-1.392,2.445-1.961
		c0.924-0.569,1.9-1.069,2.932-1.5c1.029-0.432,1.977-0.832,2.838-1.201c-0.461-1.076-1.023-2.138-1.686-3.184
		c-0.66-1.046-1.314-2.092-1.961-3.139c-0.646-1.046-1.238-2.092-1.777-3.139c-0.537-1.046-0.914-2.107-1.131-3.185
		c-0.215-1.077-0.207-2.177,0.023-3.3s0.777-2.285,1.639-3.484c0.432-0.615,0.977-1.201,1.639-1.754
		c0.662-0.555,1.354-1.062,2.076-1.523s1.432-0.846,2.123-1.154c0.693-0.307,1.27-0.491,1.732-0.553
		c0.49-0.062,0.891,0.022,1.199,0.253c0.307,0.231,0.537,0.539,0.691,0.923c0.154,0.386,0.232,0.801,0.232,1.246
		c0,0.447-0.062,0.854-0.186,1.224c-0.215,0.8-0.562,1.539-1.039,2.216s-1.031,1.3-1.66,1.869c-0.631,0.569-1.293,1.092-1.984,1.568
		c-0.693,0.479-1.393,0.932-2.102,1.361c0.277,0.924,0.693,1.87,1.246,2.84c0.555,0.969,1.146,1.961,1.777,2.977
		s1.246,2.03,1.846,3.046c0.602,1.015,1.1,2.016,1.5,3c5.107-2.276,9.832-5.169,14.17-8.677c-0.678-1.938-0.893-3.924-0.646-5.954
		c0.154-0.923,0.463-1.808,0.924-2.653c0.461-0.847,0.992-1.593,1.592-2.238c0.6-0.646,1.23-1.162,1.893-1.547
		s1.285-0.577,1.869-0.577c0.492,0,0.877,0.124,1.154,0.37c0.799,0.615,1.238,1.384,1.314,2.307
		c0.076,0.924-0.068,1.893-0.438,2.908s-0.877,2.031-1.523,3.046c-0.646,1.016-1.293,1.908-1.939,2.677
		c0.463,1.631,1.008,3.224,1.639,4.777c0.631,1.555,1.131,3.146,1.5,4.777c2.707-1.077,5.23-2.416,7.57-4.016
		c0.277-0.186,0.553-0.277,0.83-0.277s0.568,0.108,0.877,0.323C1639.012,731.652,1639.027,732.083,1638.475,732.482z
		 M1595.09,745.59c0.738,0.555,1.678,0.832,2.814,0.832c0.77,0,1.555-0.132,2.354-0.393c0.801-0.262,1.523-0.616,2.17-1.062
		c0.646-0.445,1.154-0.984,1.523-1.615s0.523-1.314,0.461-2.054c-0.031-0.153-0.053-0.323-0.068-0.507
		c-0.016-0.186-0.055-0.369-0.115-0.555c-0.861,0.4-1.738,0.77-2.631,1.107c-0.893,0.34-1.738,0.693-2.539,1.062
		s-1.539,0.784-2.215,1.246c-0.678,0.461-1.262,1.016-1.754,1.661V745.59z M1606.998,716.329c-0.369,0.554-0.824,1.015-1.363,1.384
		c-0.537,0.369-1.084,0.716-1.637,1.039c-0.555,0.323-1.086,0.686-1.594,1.084c-0.508,0.4-0.898,0.908-1.176,1.523
		c0.492-0.185,1.037-0.445,1.639-0.784c0.6-0.339,1.176-0.73,1.73-1.177c0.553-0.445,1.045-0.931,1.477-1.454
		C1606.504,717.422,1606.812,716.883,1606.998,716.329z M1625.182,741.067c0.061-0.246,0.1-0.485,0.115-0.716
		s0.039-0.469,0.07-0.715c-0.432,0.185-1.125,0.461-2.078,0.83s-1.922,0.785-2.906,1.246c-0.986,0.462-1.855,0.947-2.609,1.455
		c-0.754,0.507-1.131,0.976-1.131,1.407c0.646,0.554,1.447,0.831,2.4,0.831c0.646,0,1.316-0.124,2.008-0.369
		c0.693-0.247,1.322-0.57,1.893-0.97c0.568-0.4,1.062-0.862,1.477-1.385C1624.836,742.16,1625.09,741.621,1625.182,741.067z
		 M1628.273,717.482c-0.984,0.369-1.77,1.085-2.354,2.146s-0.707,2.423-0.369,4.084c0.277-0.307,0.631-0.761,1.062-1.361
		c0.43-0.6,0.822-1.223,1.176-1.869s0.6-1.253,0.738-1.822S1628.582,717.698,1628.273,717.482z"/>
</g>
<g>
</g>
<g>
</g>
<g>
</g>
<g>
</g>
<g>
</g>
<g>
</g>
</svg>
