<?xml version="1.0" encoding="utf-8"?>
<!-- Generator: Adobe Illustrator 26.0.3, SVG Export Plug-In . SVG Version: 6.00 Build 0)  -->
<svg version="1.1" id="Layer_1" xmlns="http://www.w3.org/2000/svg" xmlns:xlink="http://www.w3.org/1999/xlink" x="0px" y="0px"
	 viewBox="0 0 1080 1080" style="enable-background:new 0 0 1080 1080;" xml:space="preserve">
<style type="text/css">
	.st0{fill:url(#SVGID_1_);}
	.st1{fill:url(#SVGID_00000043431247898038224550000009231658940080331412_);}
	.st2{fill:url(#SVGID_00000017489578251085675860000013075238269546036376_);}
	.st3{fill:url(#SVGID_00000000943122389141882550000016351074080012240011_);}
	.st4{fill:url(#SVGID_00000063593132488470830700000015834810697676843953_);}
	.st5{fill:none;stroke:url(#SVGID_00000169536772727861512060000014468737004779727508_);stroke-width:3;stroke-miterlimit:10;}
	.st6{fill:none;stroke:url(#SVGID_00000145029134656418172310000014878024562695588743_);stroke-width:3;stroke-miterlimit:10;}
	.st7{fill:#0C2949;}
	.st8{fill:none;}
</style>
<g>
	<g>
		
			<linearGradient id="SVGID_1_" gradientUnits="userSpaceOnUse" x1="329.2192" y1="291.3121" x2="329.7192" y2="291.3121" gradientTransform="matrix(-0.866 0.5 -0.5 -0.866 1428.2284 167.869)">
			<stop  offset="0.2077" style="stop-color:#072029;stop-opacity:0"/>
			<stop  offset="0.2202" style="stop-color:#0C2531;stop-opacity:0.0931"/>
			<stop  offset="0.2441" style="stop-color:#162F46;stop-opacity:0.2727"/>
			<stop  offset="0.2769" style="stop-color:#1F3A68;stop-opacity:0.5184"/>
			<stop  offset="0.2944" style="stop-color:#213F7B;stop-opacity:0.65"/>
			<stop  offset="0.3617" style="stop-color:#1D4179;stop-opacity:0.6786"/>
			<stop  offset="0.5907" style="stop-color:#0F4871;stop-opacity:0.776"/>
			<stop  offset="0.808" style="stop-color:#034A6C;stop-opacity:0.8684"/>
			<stop  offset="1" style="stop-color:#004B6A;stop-opacity:0.95"/>
		</linearGradient>
		<path class="st0" d="M473.648,327.81L473.648,327.81c-3.035-5.257-9.756-7.058-15.013-4.023l-19.21,11.091
			c-15.415,8.9-24.908,20.372-28.473,34.423c-3.569,14.045-0.698,29.131,8.606,45.246c9.305,16.116,20.775,25.995,34.403,29.652
			c13.631,3.647,28.274,0.959,43.92-8.073l19.21-11.091c5.257-3.035,7.058-9.756,4.023-15.013h0l-94.93,0L473.648,327.81z"/>
		
			<linearGradient id="SVGID_00000178927193187004267540000013125396879298094504_" gradientUnits="userSpaceOnUse" x1="128.3151" y1="540.2593" x2="395.7142" y2="540.2593">
			<stop  offset="0" style="stop-color:#174A71"/>
			<stop  offset="0.0238" style="stop-color:#2D5575"/>
			<stop  offset="0.0594" style="stop-color:#416278"/>
			<stop  offset="0.1014" style="stop-color:#4F6C7B"/>
			<stop  offset="0.1534" style="stop-color:#59747D"/>
			<stop  offset="0.2264" style="stop-color:#5F797E"/>
			<stop  offset="0.429" style="stop-color:#617B7F"/>
			<stop  offset="0.44" style="stop-color:#5A747D;stop-opacity:0.999"/>
			<stop  offset="0.4802" style="stop-color:#456377;stop-opacity:0.9955"/>
			<stop  offset="0.5263" style="stop-color:#335672;stop-opacity:0.9915"/>
			<stop  offset="0.5802" style="stop-color:#244C6E;stop-opacity:0.9868"/>
			<stop  offset="0.6469" style="stop-color:#19456B;stop-opacity:0.9809"/>
			<stop  offset="0.7404" style="stop-color:#12416A;stop-opacity:0.9727"/>
			<stop  offset="1" style="stop-color:#114069;stop-opacity:0.95"/>
		</linearGradient>
		<path style="fill:url(#SVGID_00000178927193187004267540000013125396879298094504_);" d="M357.081,444.384
			c-25.758-23.595-58.595-35.397-98.505-35.397H128.315v32.891l88.189,50.916v-10.99h33.172c18.066,0,32.091,4.994,42.072,14.968
			c9.974,9.981,14.968,24.272,14.968,42.881c0,18.608-5.057,33.109-15.17,43.487c-10.113,10.385-24.07,15.574-41.87,15.574h-33.172
			v-10.99l-88.189,50.916v32.891h132.284c38.563,0,70.724-12.471,96.482-37.42c25.751-24.942,38.633-56.901,38.633-95.875
			C395.714,499.269,382.832,467.986,357.081,444.384z M364.295,550.891v12.291h-38.922v-11.02l19.638-22.534h-19.567v-12.291h38.852
			v11.02l-19.638,22.534H364.295z"/>
		
			<linearGradient id="SVGID_00000115510169254658139820000005582687554311912877_" gradientUnits="userSpaceOnUse" x1="128.2937" y1="540.2594" x2="128.3151" y2="540.2594">
			<stop  offset="0.5744" style="stop-color:#000000;stop-opacity:0"/>
			<stop  offset="0.7977" style="stop-color:#000000;stop-opacity:0.6512"/>
			<stop  offset="0.8184" style="stop-color:#222023;stop-opacity:0.6818"/>
			<stop  offset="0.8512" style="stop-color:#282B32;stop-opacity:0.7302"/>
			<stop  offset="0.8837" style="stop-color:#242E38;stop-opacity:0.7782"/>
			<stop  offset="0.9153" style="stop-color:#1B2E3C;stop-opacity:0.8249"/>
			<stop  offset="0.9458" style="stop-color:#0F2E3D;stop-opacity:0.8699"/>
			<stop  offset="0.9746" style="stop-color:#022D3E;stop-opacity:0.9125"/>
			<stop  offset="1" style="stop-color:#002D3F;stop-opacity:0.95"/>
		</linearGradient>
		<polygon style="fill:url(#SVGID_00000115510169254658139820000005582687554311912877_);" points="128.294,441.866 
			128.294,638.653 128.315,638.641 128.315,441.878 		"/>
		
			<linearGradient id="SVGID_00000052066504259558528880000009454760316978451391_" gradientUnits="userSpaceOnUse" x1="-360.9382" y1="540.2594" x2="-83.8361" y2="540.2594">
			<stop  offset="0.5744" style="stop-color:#3B3292;stop-opacity:0"/>
			<stop  offset="0.5995" style="stop-color:#39378C;stop-opacity:0.0729"/>
			<stop  offset="0.6478" style="stop-color:#34417F;stop-opacity:0.2136"/>
			<stop  offset="0.7145" style="stop-color:#274566;stop-opacity:0.4078"/>
			<stop  offset="0.7963" style="stop-color:#05343A;stop-opacity:0.646"/>
			<stop  offset="0.7977" style="stop-color:#043439;stop-opacity:0.65"/>
		</linearGradient>
		<polygon style="fill:url(#SVGID_00000052066504259558528880000009454760316978451391_);" points="298.716,540.259 
			216.504,492.794 216.504,587.725 		"/>
		
			<linearGradient id="SVGID_00000117664482005673437130000013449750359191342732_" gradientUnits="userSpaceOnUse" x1="-360.9382" y1="540.2594" x2="-360.4382" y2="540.2594">
			<stop  offset="0.5744" style="stop-color:#174A71"/>
			<stop  offset="0.6309" style="stop-color:#295374"/>
			<stop  offset="0.7391" style="stop-color:#4C6A7B"/>
			<stop  offset="0.7977" style="stop-color:#617B7F"/>
			<stop  offset="1" style="stop-color:#617B7F"/>
		</linearGradient>
		<polygon style="fill:url(#SVGID_00000117664482005673437130000013449750359191342732_);" points="207.504,492.794 
			119.315,441.878 119.315,638.641 207.504,587.725 		"/>
		
			<linearGradient id="SVGID_00000021836247050812670790000003565224139171550376_" gradientUnits="userSpaceOnUse" x1="343.9158" y1="540.4084" x2="405.4877" y2="540.4084">
			<stop  offset="0.3901" style="stop-color:#000000;stop-opacity:0"/>
			<stop  offset="0.3926" style="stop-color:#0D0C0C;stop-opacity:0.004"/>
			<stop  offset="0.4111" style="stop-color:#2C2B31;stop-opacity:0.0335"/>
			<stop  offset="0.4319" style="stop-color:#31353E;stop-opacity:0.0667"/>
			<stop  offset="0.4545" style="stop-color:#2F3846;stop-opacity:0.1028"/>
			<stop  offset="0.4796" style="stop-color:#2A394C;stop-opacity:0.1427"/>
			<stop  offset="0.5078" style="stop-color:#213A4F;stop-opacity:0.1877"/>
			<stop  offset="0.5408" style="stop-color:#183A52;stop-opacity:0.2404"/>
			<stop  offset="0.5816" style="stop-color:#0C3954;stop-opacity:0.3054"/>
			<stop  offset="0.6389" style="stop-color:#043955;stop-opacity:0.3967"/>
			<stop  offset="0.7977" style="stop-color:#023955;stop-opacity:0.65"/>
			<stop  offset="0.8205" style="stop-color:#093C5E;stop-opacity:0.6838"/>
			<stop  offset="0.8489" style="stop-color:#0E3F64;stop-opacity:0.7259"/>
			<stop  offset="0.8889" style="stop-color:#104068;stop-opacity:0.7853"/>
			<stop  offset="1" style="stop-color:#114069;stop-opacity:0.95"/>
		</linearGradient>
		
			<path style="fill:none;stroke:url(#SVGID_00000021836247050812670790000003565224139171550376_);stroke-width:3;stroke-miterlimit:10;" d="
			M400.5,427.774c-36.205,49.301,60.005,135.408-55.666,224.971"/>
		
			<radialGradient id="SVGID_00000080887229268413686370000014082171924373456300_" cx="793.8007" cy="24.5659" r="10.2292" gradientTransform="matrix(-0.5 -0.866 0.866 -0.5 784.1837 1121.96)" gradientUnits="userSpaceOnUse">
			<stop  offset="0.3901" style="stop-color:#000000;stop-opacity:0"/>
			<stop  offset="0.3926" style="stop-color:#0D0C0C;stop-opacity:0.004"/>
			<stop  offset="0.4111" style="stop-color:#2C2B31;stop-opacity:0.0335"/>
			<stop  offset="0.4319" style="stop-color:#31353E;stop-opacity:0.0667"/>
			<stop  offset="0.4545" style="stop-color:#2F3846;stop-opacity:0.1028"/>
			<stop  offset="0.4796" style="stop-color:#2A394C;stop-opacity:0.1427"/>
			<stop  offset="0.5078" style="stop-color:#213A4F;stop-opacity:0.1877"/>
			<stop  offset="0.5408" style="stop-color:#183A52;stop-opacity:0.2404"/>
			<stop  offset="0.5816" style="stop-color:#0C3954;stop-opacity:0.3054"/>
			<stop  offset="0.6389" style="stop-color:#043955;stop-opacity:0.3967"/>
			<stop  offset="0.7977" style="stop-color:#023955;stop-opacity:0.65"/>
			<stop  offset="0.8205" style="stop-color:#093C5E;stop-opacity:0.6838"/>
			<stop  offset="0.8489" style="stop-color:#0E3F64;stop-opacity:0.7259"/>
			<stop  offset="0.8889" style="stop-color:#104068;stop-opacity:0.7853"/>
			<stop  offset="1" style="stop-color:#114069;stop-opacity:0.95"/>
		</radialGradient>
		
			<circle style="fill:none;stroke:url(#SVGID_00000080887229268413686370000014082171924373456300_);stroke-width:3;stroke-miterlimit:10;" cx="408.558" cy="422.225" r="8.729"/>
	</g>
	<g>
		<path class="st7" d="M428.898,551.192c0.32-0.977,0.594-2.295,0.777-4.004c0.137-1.709,0.229-3.174,0.229-4.395v-58.496
			c0-1.221-0.091-2.686-0.229-4.395c-0.183-1.709-0.457-3.027-0.777-4.004h19.981c3.978,0,7.361,1.514,10.196,4.492
			c2.789,3.027,4.207,6.689,4.207,10.938v45.215c0,2.783-0.64,5.322-1.92,7.52c-1.326,2.197-3.063,3.955-5.212,5.225
			c-2.195,1.27-4.618,1.904-7.27,1.904H428.898z M450.343,541.134c0.823-0.879,1.235-1.953,1.235-3.223v-47.998
			c0-1.221-0.411-2.295-1.235-3.223c-0.869-0.928-1.875-1.367-3.063-1.367h-5.624v57.178h5.624
			C448.468,542.501,449.474,542.061,450.343,541.134z"/>
		<path class="st7" d="M494.054,550.802l-1.783-15.869h-11.157l-1.829,15.869h-13.488c0.686-1.221,1.417-3.662,2.149-7.324
			l9.922-67.969h17.604l9.922,67.969c0.732,3.613,1.463,6.055,2.149,7.324H494.054z M486.876,487.862h-0.411l-4.389,38.379h9.19
			L486.876,487.862z"/>
		<path class="st7" d="M509.144,550.802v-8.74l21.079-57.129h-13.26c-1.143,0-2.515,0.098-4.115,0.244
			c-1.6,0.195-2.835,0.488-3.704,0.83V475.46h33.332v7.959l-21.353,57.91h13.534c1.143,0,2.469-0.098,4.069-0.293
			c1.6-0.146,2.835-0.439,3.749-0.781v10.547H509.144z"/>
		<path class="st7" d="M567.167,550.802c0.32-0.977,0.594-2.344,0.777-4.053c0.137-1.709,0.229-3.174,0.229-4.395v-58.447
			c0-1.221-0.091-2.734-0.229-4.443c-0.183-1.709-0.457-3.027-0.777-4.004h30.772v10.547c-0.914-0.342-2.149-0.635-3.749-0.83
			c-1.6-0.146-2.972-0.244-4.115-0.244h-10.196v23.389h13.26v8.691h-13.26v24.316h10.196c1.143,0,2.515-0.098,4.115-0.293
			c1.6-0.146,2.835-0.439,3.749-0.781v10.547H567.167z"/>
		<path class="st7" d="M602.054,550.802c0.32-0.977,0.594-2.344,0.777-4.053c0.137-1.709,0.229-3.174,0.229-4.395v-58.447
			c0-1.221-0.091-2.734-0.229-4.443c-0.183-1.709-0.457-3.027-0.777-4.004h12.757v65.869h10.196c1.143,0,2.469-0.098,4.069-0.293
			c1.6-0.146,2.835-0.439,3.749-0.781v10.547H602.054z"/>
		<path class="st7" d="M636.941,550.802c0.32-0.977,0.594-2.344,0.777-4.053c0.137-1.709,0.229-3.174,0.229-4.395v-58.447
			c0-1.221-0.091-2.734-0.229-4.443c-0.183-1.709-0.457-3.027-0.777-4.004h30.772v10.547c-0.914-0.342-2.149-0.635-3.749-0.83
			c-1.6-0.146-2.972-0.244-4.115-0.244h-10.196v23.389h13.26v8.691h-13.26v24.316h10.196c1.143,0,2.515-0.098,4.115-0.293
			c1.6-0.146,2.835-0.439,3.749-0.781v10.547H636.941z"/>
		<path class="st7" d="M686.962,551.925c-4.161,0-7.682-1.611-10.654-4.785c-2.972-3.174-4.481-7.031-4.481-11.475v-45.02
			c0-4.443,1.509-8.301,4.481-11.475c2.972-3.174,6.493-4.736,10.654-4.736h3.109c4.161,0,7.727,1.562,10.699,4.736
			c2.972,3.174,4.435,7.031,4.435,11.475v11.377l-10.379,2.734h-1.326v-15.527c0-1.465-0.503-2.734-1.463-3.76
			c-0.96-1.025-2.149-1.562-3.521-1.562s-2.56,0.537-3.521,1.562s-1.463,2.295-1.463,3.76v47.9c0,1.465,0.503,2.734,1.463,3.76
			s2.149,1.562,3.521,1.562s2.561-0.537,3.521-1.562c0.96-1.025,1.463-2.295,1.463-3.76v-15.283l10.333-2.734h1.372v16.553
			c0,4.443-1.463,8.301-4.435,11.475c-2.972,3.174-6.538,4.785-10.699,4.785H686.962z"/>
		<path class="st7" d="M719.654,550.802c0.594-1.562,0.914-4.004,1.006-7.324v-58.545h-3.475c-1.143,0-2.515,0.098-4.115,0.244
			c-1.6,0.195-2.835,0.488-3.749,0.879v-10.547h34.43v10.547c-0.914-0.391-2.149-0.684-3.749-0.879
			c-1.6-0.146-2.972-0.244-4.115-0.244h-3.475v58.545c0.091,3.32,0.412,5.762,1.006,7.324H719.654z"/>
		<path class="st7" d="M769.264,551.192v-28.32c0-1.025-0.366-1.904-1.097-2.539c-0.777-0.635-1.92-1.025-3.429-1.123h-5.395v23.584
			c0,1.221,0.091,2.686,0.274,4.395c0.137,1.709,0.411,3.027,0.732,4.004h-13.763c0.32-0.977,0.594-2.295,0.777-4.004
			c0.137-1.709,0.229-3.174,0.229-4.395v-58.496c0-1.221-0.091-2.686-0.229-4.395c-0.183-1.709-0.457-3.027-0.777-4.004h19.981
			c3.978,0,7.362,1.514,10.196,4.492c2.789,3.027,4.207,6.689,4.207,10.938v11.572c0,2.49-0.503,4.688-1.463,6.689
			c-1.006,2.002-2.378,3.711-4.069,5.029c1.783,1.025,3.155,2.539,4.115,4.492s1.417,4.15,1.417,6.592v17.09
			c0,1.221,0.091,2.686,0.274,4.395c0.137,1.709,0.411,3.027,0.732,4.004H769.264z M768.03,509.151
			c0.823-0.879,1.235-1.953,1.235-3.223v-16.016c0-1.221-0.411-2.295-1.235-3.223c-0.869-0.928-1.875-1.367-3.063-1.367h-5.624
			v25.195h5.624C766.155,510.518,767.161,510.079,768.03,509.151z"/>
		<path class="st7" d="M801.225,551.925c-4.161,0-7.682-1.611-10.654-4.785s-4.481-7.031-4.481-11.475v-45.02
			c0-4.443,1.509-8.301,4.481-11.475s6.493-4.736,10.654-4.736h3.109c4.161,0,7.727,1.562,10.699,4.736
			c2.972,3.174,4.435,7.031,4.435,11.475v45.02c0,4.443-1.463,8.301-4.435,11.475c-2.972,3.174-6.539,4.785-10.699,4.785H801.225z
			 M806.3,540.89c0.96-1.025,1.463-2.295,1.463-3.76v-47.9c0-1.465-0.503-2.734-1.463-3.76s-2.149-1.562-3.521-1.562
			s-2.515,0.537-3.475,1.562c-0.96,1.025-1.463,2.295-1.463,3.76v47.9c0,1.465,0.503,2.734,1.463,3.76
			c0.96,1.025,2.103,1.562,3.475,1.562S805.34,541.915,806.3,540.89z"/>
		<path class="st7" d="M848.092,550.802l-12.848-52.344l-0.823,0.195l1.92,14.648v29.053c0,1.221,0.091,2.686,0.274,4.395
			c0.137,1.709,0.412,3.076,0.732,4.053h-13.763c0.366-0.977,0.64-2.344,0.823-4.053c0.137-1.709,0.229-3.174,0.229-4.395v-58.447
			c0-1.221-0.091-2.734-0.229-4.443c-0.183-1.709-0.457-3.027-0.823-4.004h13.763l12.025,49.072l0.823-0.195l-1.92-14.697v-25.732
			c0-1.221-0.091-2.734-0.229-4.443c-0.183-1.709-0.457-3.027-0.777-4.004h13.763c-0.366,0.977-0.64,2.295-0.777,4.004
			c-0.183,1.709-0.274,3.223-0.274,4.443v58.447c0,1.221,0.091,2.686,0.274,4.395c0.137,1.709,0.412,3.076,0.777,4.053H848.092z"/>
		<path class="st7" d="M865.147,551.192c0.32-0.977,0.594-2.295,0.777-4.004c0.137-1.709,0.229-3.174,0.229-4.395v-58.496
			c0-1.221-0.091-2.686-0.229-4.395c-0.183-1.709-0.457-3.027-0.777-4.004h13.717c-0.32,0.977-0.594,2.295-0.732,4.004
			c-0.183,1.709-0.274,3.174-0.274,4.395v58.496c0,1.221,0.091,2.686,0.274,4.395c0.137,1.709,0.411,3.027,0.732,4.004H865.147z"/>
		<path class="st7" d="M898.113,551.925c-4.161,0-7.682-1.611-10.654-4.785c-2.972-3.174-4.481-7.031-4.481-11.475v-45.02
			c0-4.443,1.509-8.301,4.481-11.475c2.972-3.174,6.493-4.736,10.654-4.736h3.109c4.161,0,7.727,1.562,10.699,4.736
			c2.972,3.174,4.435,7.031,4.435,11.475v11.377l-10.379,2.734h-1.326v-15.527c0-1.465-0.503-2.734-1.463-3.76
			s-2.149-1.562-3.521-1.562s-2.56,0.537-3.521,1.562s-1.463,2.295-1.463,3.76v47.9c0,1.465,0.503,2.734,1.463,3.76
			s2.149,1.562,3.521,1.562s2.561-0.537,3.521-1.562s1.463-2.295,1.463-3.76v-15.283l10.333-2.734h1.372v16.553
			c0,4.443-1.463,8.301-4.435,11.475c-2.972,3.174-6.538,4.785-10.699,4.785H898.113z"/>
		<path class="st7" d="M935.606,551.925c-4.161,0-7.682-1.611-10.654-4.785c-2.972-3.174-4.481-7.031-4.481-11.475v-10.596
			l10.379-2.734h1.326v14.795c0,1.465,0.503,2.734,1.463,3.76c0.96,1.025,2.149,1.562,3.521,1.562c1.326,0,2.515-0.537,3.475-1.562
			s1.463-2.295,1.463-3.76v-9.375c0-1.318-0.183-2.441-0.594-3.369c-0.411-0.879-1.28-2.002-2.698-3.32
			c-1.417-1.318-2.835-2.686-4.252-4.004l-8.505-8.057c-0.686-0.635-1.463-1.416-2.332-2.441c-2.149-2.49-3.246-5.518-3.246-9.082
			v-6.836c0-4.443,1.509-8.301,4.481-11.475c2.972-3.174,6.493-4.736,10.654-4.736h3.109c4.161,0,7.727,1.562,10.699,4.736
			c2.972,3.174,4.435,7.031,4.435,11.475v8.789l-10.379,2.686h-1.372v-12.891c0-1.465-0.503-2.734-1.463-3.76
			s-2.149-1.562-3.475-1.562c-1.372,0-2.561,0.537-3.521,1.562c-0.96,1.025-1.463,2.295-1.463,3.76v8.203
			c0,1.123,0.183,2.051,0.549,2.832c0.366,0.83,1.326,1.953,2.835,3.369l13.626,12.891c0.777,0.732,1.555,1.611,2.24,2.588
			c0.686,1.025,1.28,2.148,1.738,3.467c0.457,1.318,0.686,2.832,0.686,4.541v8.545c0,4.443-1.463,8.301-4.435,11.475
			c-2.972,3.174-6.538,4.785-10.699,4.785H935.606z"/>
	</g>
	<g>
		<rect x="417.289" y="556.896" class="st8" width="543.396" height="72.915"/>
		<path d="M442.831,568.583c-2.523,2.277-4.2,4.354-5.031,6.23c-0.831,1.877-1.039,3.601-0.623,5.17
			c0.415,1.568,1.354,3.022,2.815,4.361c1.461,1.338,3.223,2.607,5.285,3.808c2.061,1.2,4.307,2.369,6.738,3.508
			c2.43,1.139,4.838,2.292,7.223,3.461c2.384,1.17,4.638,2.377,6.761,3.623s3.884,2.601,5.285,4.062
			c1.4,1.462,2.346,3.054,2.838,4.777c0.492,1.723,0.292,3.63-0.6,5.723c-0.801,1.938-2.07,3.315-3.808,4.131
			c-1.739,0.815-3.731,1.216-5.977,1.2c-2.247-0.016-4.646-0.377-7.2-1.085c-2.554-0.708-5.054-1.631-7.5-2.769
			c-2.446-1.139-4.73-2.423-6.854-3.854c-2.123-1.431-3.876-2.869-5.261-4.315c-0.554-0.584-0.985-1.177-1.292-1.776
			c-0.308-0.6-0.2-1.285,0.323-2.054c0.307-0.399,0.6-0.615,0.877-0.646c0.277-0.03,0.546,0.031,0.808,0.185
			c0.261,0.154,0.523,0.377,0.785,0.669c0.261,0.293,0.515,0.562,0.761,0.809c1.292,1.229,2.831,2.438,4.616,3.623
			c1.784,1.184,3.715,2.253,5.792,3.207c2.077,0.953,4.215,1.746,6.416,2.377c2.2,0.631,4.362,1.008,6.485,1.131
			c2.061,0.123,3.692-0.016,4.892-0.415c1.2-0.4,2.008-0.962,2.423-1.685c0.415-0.724,0.469-1.562,0.161-2.516
			c-0.308-0.954-0.923-1.924-1.846-2.908c-1.292-1.354-2.854-2.569-4.685-3.646c-1.831-1.077-3.785-2.101-5.861-3.069
			c-2.077-0.97-4.216-1.931-6.416-2.885c-2.2-0.953-4.323-1.977-6.369-3.069c-2.046-1.092-3.946-2.3-5.7-3.623
			c-1.753-1.322-3.215-2.83-4.384-4.522c-1.447-2.093-2.139-4.262-2.077-6.508c0.062-2.246,0.669-4.454,1.823-6.623
			c1.154-2.17,2.73-4.262,4.73-6.277c2-2.015,4.223-3.831,6.669-5.446s4.985-3,7.615-4.153c2.631-1.154,5.146-1.962,7.546-2.424
			c2.123-0.399,4.246-0.392,6.369,0.023s4.062,1.185,5.815,2.308c1.754,1.124,3.231,2.593,4.431,4.408
			c1.2,1.815,1.923,3.923,2.169,6.322c0.246,2.4-0.085,5.07-0.992,8.008c-0.908,2.939-2.578,6.085-5.008,9.438
			c-0.124,0.154-0.362,0.516-0.715,1.085c-0.354,0.569-0.754,1.107-1.2,1.615c-0.446,0.508-0.908,0.877-1.385,1.107
			c-0.477,0.231-0.885,0.101-1.223-0.392c-0.185-0.339-0.27-0.662-0.254-0.97c0.015-0.307,0.092-0.6,0.23-0.877
			c0.139-0.276,0.315-0.546,0.531-0.808c0.215-0.261,0.416-0.515,0.6-0.762c2.338-2.799,4.046-5.461,5.123-7.984
			c1.077-2.522,1.639-4.838,1.685-6.946c0.046-2.107-0.362-3.969-1.223-5.584c-0.862-1.616-2.084-2.915-3.669-3.9
			c-1.585-0.984-3.47-1.607-5.654-1.869c-2.185-0.261-4.554-0.085-7.108,0.53c-2.554,0.616-5.254,1.693-8.1,3.231
			C448.592,563.892,445.723,565.968,442.831,568.583z"/>
		<path d="M527.153,591.152c0.37,0.246,0.446,0.585,0.231,1.016c-0.738,1.415-1.577,2.73-2.516,3.945
			c-0.938,1.217-1.915,2.27-2.931,3.162s-2.031,1.601-3.046,2.123c-1.016,0.523-1.955,0.784-2.815,0.784
			c-0.893,0-1.67-0.307-2.331-0.923c-0.662-0.615-1.131-1.615-1.407-3c-0.186-0.892-0.293-1.931-0.323-3.115
			c-0.031-1.185-0.124-2.314-0.277-3.393c-0.154-1.076-0.423-2.03-0.808-2.861s-1.023-1.354-1.915-1.569
			c-0.862-0.215-1.754-0.069-2.677,0.438c-0.924,0.508-1.785,1.154-2.585,1.938c-0.801,0.785-1.531,1.623-2.192,2.516
			c-0.662,0.893-1.177,1.615-1.546,2.169c-0.277,0.432-0.531,0.731-0.762,0.9s-0.501,0.224-0.808,0.161
			c-0.277-0.062-0.531-0.107-0.762-0.139c-0.23-0.03-0.47-0.061-0.716-0.092l-0.138-0.046h-0.093
			c-0.646-0.093-0.923-0.478-0.831-1.154c0.215-1.138,0.361-2.407,0.438-3.808c0.077-1.399-0.115-3.023-0.576-4.869
			c-0.154-0.554-0.323-1.022-0.508-1.408c-0.185-0.384-0.462-0.576-0.831-0.576c-0.432,0-0.954,0.27-1.569,0.808
			s-1.27,1.23-1.961,2.077c-0.692,0.846-1.393,1.784-2.101,2.814c-0.708,1.031-1.369,2.024-1.984,2.978
			c-0.616,0.954-1.162,1.823-1.639,2.607c-0.477,0.785-0.808,1.361-0.992,1.73c-0.277,0.524-0.631,0.908-1.062,1.154
			c-0.431,0.247-0.908,0.339-1.431,0.277c-0.124-0.03-0.224-0.047-0.3-0.047c-0.077,0-0.131,0-0.161,0h-0.046
			c-1.139-0.185-1.615-0.846-1.431-1.984c0.399-2.216,0.838-4.415,1.315-6.6c0.477-2.185,1.022-4.369,1.638-6.555
			c0.185-0.707,0.538-1.153,1.062-1.338c0.523-0.185,1.092-0.277,1.708-0.277c1.138,0.062,1.569,0.646,1.292,1.754
			c-0.523,1.785-0.985,3.57-1.384,5.354c-0.4,1.784-0.77,3.584-1.108,5.399c0.369-0.646,0.831-1.423,1.385-2.331
			c0.554-0.906,1.161-1.853,1.823-2.838c0.662-0.984,1.377-1.969,2.146-2.954c0.769-0.984,1.546-1.861,2.331-2.631
			c0.784-0.769,1.584-1.392,2.399-1.869c0.815-0.477,1.593-0.715,2.331-0.715c0.615,0,1.169,0.154,1.661,0.461
			c0.677,0.4,1.185,0.992,1.523,1.777c0.338,0.784,0.569,1.654,0.692,2.607c0.122,0.954,0.161,1.962,0.115,3.023
			s-0.131,2.085-0.254,3.069c0.554-0.831,1.169-1.692,1.847-2.585c0.676-0.893,1.407-1.708,2.191-2.446
			c0.785-0.738,1.623-1.346,2.516-1.823c0.893-0.477,1.815-0.715,2.77-0.715c0.492,0,0.938,0.062,1.338,0.185
			c1.23,0.308,2.177,0.885,2.839,1.73c0.661,0.847,1.146,1.808,1.454,2.885c0.307,1.077,0.515,2.215,0.623,3.415
			c0.107,1.2,0.208,2.301,0.3,3.3c0.093,1.001,0.254,1.84,0.484,2.516c0.231,0.678,0.639,1.047,1.224,1.107
			c0.615,0.062,1.292-0.122,2.03-0.554c0.738-0.431,1.484-0.999,2.238-1.707s1.484-1.516,2.192-2.424
			c0.708-0.907,1.308-1.792,1.801-2.653C526.522,590.968,526.814,590.906,527.153,591.152z"/>
		<path d="M557.753,591.383c0.369,0.277,0.431,0.616,0.185,1.016c-0.615,0.861-1.346,1.793-2.192,2.792c-0.846,1-1.77,1.9-2.769,2.7
			c-1,0.801-2.047,1.4-3.139,1.8c-1.093,0.4-2.208,0.432-3.346,0.093c-1.047-0.339-1.878-0.861-2.493-1.569
			s-1.077-1.523-1.384-2.446c-0.309-0.923-0.493-1.923-0.555-3s-0.046-2.139,0.047-3.185c-1.17,1.661-2.501,3.2-3.993,4.615
			c-1.493,1.416-3.178,2.478-5.055,3.185c-0.523,0.216-1.084,0.386-1.685,0.508c-0.6,0.123-1.192,0.161-1.776,0.115
			c-0.585-0.046-1.139-0.185-1.662-0.415s-0.969-0.607-1.338-1.131c-0.77-1.077-1.107-2.384-1.016-3.923
			c0.093-1.538,0.508-3.1,1.246-4.685s1.746-3.093,3.023-4.523c1.276-1.431,2.723-2.592,4.338-3.484
			c1.616-0.893,3.347-1.4,5.192-1.523c1.847-0.122,3.708,0.323,5.585,1.339c0.399-0.215,0.784-0.308,1.153-0.277
			c0.585,0.093,0.977,0.347,1.178,0.762c0.199,0.415,0.284,0.885,0.254,1.407c-0.031,0.524-0.116,1.055-0.254,1.593
			c-0.139,0.539-0.239,0.992-0.301,1.361c-0.185,0.862-0.369,1.862-0.554,3c-0.185,1.139-0.246,2.27-0.185,3.393
			s0.3,2.162,0.716,3.115c0.415,0.954,1.146,1.678,2.192,2.169c0.646,0.309,1.315,0.362,2.008,0.162s1.376-0.554,2.054-1.062
			c0.676-0.508,1.315-1.108,1.915-1.8c0.6-0.692,1.146-1.362,1.639-2.008c0.307-0.399,0.63-0.446,0.969-0.139V591.383z
			 M542.568,586.214c0.123-0.677,0.224-1.238,0.301-1.685c0.076-0.446,0.161-0.869,0.253-1.27c0.093-0.399,0.154-0.677,0.186-0.831
			c-0.894-0.369-1.823-0.522-2.793-0.461c-0.969,0.062-1.931,0.27-2.885,0.623s-1.861,0.823-2.723,1.407
			c-0.862,0.585-1.615,1.231-2.262,1.938c-0.276,0.309-0.593,0.747-0.946,1.315c-0.354,0.57-0.677,1.186-0.969,1.847
			c-0.293,0.662-0.516,1.331-0.67,2.008s-0.169,1.285-0.046,1.822c0.123,0.539,0.407,0.946,0.854,1.224
			c0.445,0.276,1.146,0.369,2.1,0.276c0.953-0.122,1.893-0.461,2.815-1.015s1.8-1.23,2.631-2.031c0.83-0.8,1.607-1.653,2.33-2.562
			C541.468,587.914,542.076,587.045,542.568,586.214z"/>
		<path d="M580.091,582.152c0.431,0.062,0.569,0.293,0.416,0.692c-0.739,1.815-1.608,3.607-2.608,5.377s-2.054,3.454-3.161,5.054
			c-1.107,1.601-2.246,3.069-3.415,4.407c-1.17,1.339-2.316,2.478-3.438,3.416c-1.124,0.938-2.186,1.63-3.185,2.076
			c-1.001,0.446-1.9,0.577-2.7,0.393c-0.616-0.154-1.101-0.461-1.454-0.923c-0.354-0.462-0.616-1-0.784-1.615
			c-0.17-0.615-0.262-1.262-0.277-1.938s-0.008-1.308,0.023-1.893c0.03-0.584,0.069-1.076,0.115-1.477
			c0.046-0.399,0.053-0.631,0.022-0.692c-0.154-0.339-0.415-0.592-0.784-0.762c-0.369-0.169-0.762-0.323-1.177-0.462
			c-0.416-0.138-0.815-0.307-1.2-0.507s-0.686-0.485-0.9-0.854c-0.399-0.707-0.639-1.538-0.715-2.492
			c-0.077-0.953-0.031-1.938,0.139-2.954c0.168-1.015,0.453-2.03,0.854-3.046c0.399-1.016,0.869-1.931,1.407-2.746
			c0.538-0.814,1.139-1.5,1.801-2.054c0.661-0.554,1.33-0.877,2.008-0.97c1.229-0.185,2.291,0.185,3.185,1.108
			c0.86,0.923,1.169,2,0.923,3.23c-0.123,0.861-0.386,1.685-0.785,2.469c-0.399,0.785-0.838,1.517-1.315,2.192
			c-0.477,0.678-0.954,1.293-1.431,1.847c-0.478,0.554-0.854,1.031-1.131,1.431c0.277,0.123,0.562,0.23,0.854,0.323
			c0.292,0.092,0.577,0.2,0.854,0.323c0.277,0.123,0.531,0.3,0.762,0.53s0.407,0.547,0.53,0.946
			c0.154,0.462,0.238,0.938,0.254,1.431s0.016,0.992,0,1.5s-0.03,1.008-0.046,1.5s0.023,0.985,0.115,1.477
			c0.062,0.34,0.123,0.686,0.185,1.039s0.339,0.53,0.831,0.53c0.462,0,0.907-0.107,1.339-0.322c0.43-0.216,0.854-0.478,1.269-0.785
			c0.416-0.308,0.8-0.638,1.154-0.992c0.354-0.354,0.685-0.685,0.992-0.992c2.03-2.123,3.838-4.369,5.423-6.738
			s2.946-4.893,4.085-7.569c0.185-0.399,0.491-0.569,0.923-0.508H580.091z M559.229,589.398c0.338-0.369,0.808-0.869,1.408-1.5
			c0.6-0.63,1.169-1.292,1.707-1.984s0.977-1.4,1.315-2.123s0.431-1.362,0.277-1.916l-0.277-0.185
			c-0.677-0.092-1.354-0.015-2.03,0.231c-0.4,0.276-0.801,0.723-1.2,1.338c-0.4,0.616-0.731,1.292-0.992,2.031
			c-0.262,0.738-0.432,1.477-0.508,2.215C558.853,588.244,558.953,588.876,559.229,589.398z"/>
		<path d="M602.337,568.813c-1.846,0.093-3.686,0.224-5.516,0.393c-1.831,0.17-3.669,0.377-5.515,0.623
			c-1.416,2.123-2.87,4.208-4.362,6.254c-1.492,2.047-3.054,4.055-4.685,6.023c-0.216,0.8-0.446,1.831-0.692,3.092
			c-0.246,1.262-0.469,2.639-0.669,4.131c-0.2,1.493-0.362,3.039-0.484,4.639c-0.123,1.6-0.17,3.123-0.139,4.569
			c0.03,1.446,0.161,2.762,0.393,3.946c0.23,1.184,0.576,2.114,1.038,2.792c0.185,0.276,0.415,0.484,0.692,0.623
			s0.546,0.276,0.808,0.415c0.261,0.139,0.469,0.315,0.623,0.531c0.153,0.215,0.215,0.522,0.185,0.923
			c-0.092,0.707-0.415,1.23-0.969,1.569c-0.554,0.338-1.17,0.508-1.847,0.508c-0.8,0-1.539-0.216-2.215-0.646
			c-0.924-0.616-1.608-1.661-2.054-3.139c-0.447-1.477-0.709-3.246-0.785-5.308c-0.077-2.061,0.023-4.338,0.3-6.83
			c0.277-2.493,0.685-5.038,1.224-7.639c0.538-2.6,1.2-5.185,1.984-7.754s1.639-4.977,2.562-7.224
			c-2.339,0.4-4.646,0.894-6.923,1.478c-2.277,0.585-4.538,1.246-6.785,1.984c-0.061,0.031-0.122,0.054-0.185,0.069
			c-0.062,0.016-0.139,0.054-0.23,0.115c-0.215,0.123-0.415,0.185-0.6,0.185c-0.37,0-0.555-0.323-0.555-0.969
			c0.062-1.046,0.493-1.754,1.293-2.123c2.431-0.984,5-1.823,7.707-2.516c2.708-0.692,5.339-1.284,7.893-1.777
			c0.8-1.661,1.631-3.199,2.492-4.615c0.861-1.415,1.731-2.631,2.608-3.646c0.877-1.015,1.761-1.814,2.653-2.399
			c0.893-0.584,1.754-0.893,2.585-0.923c0.83,0,1.392,0.246,1.685,0.738c0.292,0.492,0.438,1.077,0.438,1.754
			s-0.101,1.369-0.3,2.077c-0.201,0.708-0.393,1.276-0.577,1.707c-0.277,0.616-0.577,1.239-0.9,1.869
			c-0.323,0.631-0.669,1.27-1.038,1.916c1.661-0.215,3.307-0.408,4.938-0.577c1.63-0.169,3.323-0.33,5.077-0.484
			c0.522-0.062,0.907,0.054,1.153,0.346c0.246,0.293,0.292,0.7,0.139,1.224c-0.062,0.123-0.093,0.23-0.093,0.322
			c-0.154,0.523-0.446,0.939-0.877,1.246C603.383,568.614,602.891,568.783,602.337,568.813z M589.183,570.152
			c-0.431,0.062-0.861,0.123-1.292,0.185s-0.861,0.123-1.292,0.185c-0.585,1.231-1.131,2.462-1.639,3.692s-0.978,2.492-1.407,3.784
			c0.153-0.185,0.407-0.53,0.761-1.038s0.785-1.107,1.293-1.8s1.068-1.47,1.685-2.331
			C587.906,571.968,588.537,571.075,589.183,570.152z M590.337,564.06c-0.339,0.462-0.654,0.932-0.946,1.408
			c-0.293,0.478-0.593,0.962-0.899,1.454c0.522-0.062,1.045-0.131,1.568-0.208c0.523-0.076,1.046-0.146,1.569-0.208
			c0.554-0.892,1.069-1.737,1.547-2.538c0.477-0.8,0.868-1.53,1.177-2.192c0.307-0.661,0.53-1.215,0.669-1.662
			c0.139-0.445,0.131-0.761-0.023-0.945c-0.708,0.861-1.492,1.646-2.354,2.354C591.783,562.229,591.014,563.075,590.337,564.06z"/>
		<path d="M622.829,592.444c-0.493,0.923-1.07,1.869-1.731,2.839c-0.662,0.969-1.377,1.869-2.146,2.7
			c-0.77,0.83-1.601,1.546-2.492,2.146c-0.894,0.601-1.847,0.992-2.862,1.177c-1.754,0.309-3.123,0.132-4.107-0.53
			c-0.985-0.661-1.738-1.593-2.262-2.792c-0.523-1.2-0.907-2.546-1.153-4.039c-0.247-1.492-0.508-2.907-0.785-4.246
			c-0.276-1.338-0.654-2.492-1.131-3.461c-0.478-0.97-1.223-1.516-2.238-1.639c-0.738-0.093-1.446,0.1-2.123,0.576
			c-0.677,0.478-1.277,0.946-1.8,1.408c-1.385,1.323-2.593,2.731-3.623,4.223c-1.031,1.493-1.946,2.862-2.746,4.108
			c-0.801,1.246-1.516,2.27-2.146,3.069s-1.254,1.169-1.869,1.107c-0.554-0.062-0.908-0.446-1.062-1.154
			c-0.154-0.707-0.123-1.754,0.093-3.138c0.215-1.385,0.592-3.139,1.13-5.262s1.192-4.646,1.962-7.569
			c0.153-0.523,0.431-0.915,0.831-1.177c0.399-0.262,0.861-0.347,1.385-0.254c0.061,0,0.115,0.008,0.161,0.022
			c0.046,0.017,0.1,0.023,0.161,0.023c0.523,0.092,0.9,0.315,1.131,0.669c0.231,0.354,0.27,0.793,0.116,1.315
			c-1.139,3.478-2.016,7.093-2.631,10.847c0.8-1.354,1.745-2.831,2.838-4.431c1.092-1.6,2.269-3.054,3.531-4.362
			c1.261-1.307,2.6-2.314,4.015-3.022s2.862-0.815,4.339-0.323c1.107,0.369,1.938,1.046,2.492,2.03
			c0.554,0.985,0.97,2.108,1.246,3.369c0.277,1.263,0.492,2.57,0.646,3.924c0.153,1.354,0.393,2.584,0.715,3.692
			c0.323,1.107,0.792,2.008,1.408,2.699c0.615,0.692,1.538,0.993,2.77,0.9c0.707-0.062,1.384-0.284,2.03-0.669
			s1.254-0.877,1.823-1.478c0.569-0.6,1.1-1.261,1.593-1.984c0.491-0.723,0.938-1.423,1.338-2.1
			c0.093-0.185,0.223-0.292,0.393-0.323c0.169-0.03,0.33,0.016,0.484,0.139C622.951,591.722,623.044,592.045,622.829,592.444z"/>
		<path d="M647.29,581.968c0.522,0.092,0.646,0.354,0.369,0.784c-0.801,1.385-1.708,2.815-2.724,4.293
			c-1.015,1.477-2.093,2.923-3.23,4.338c-1.139,1.416-2.339,2.754-3.6,4.016c-1.263,1.262-2.539,2.37-3.831,3.323
			c-1.292,0.954-2.593,1.707-3.9,2.262c-1.308,0.554-2.577,0.83-3.808,0.83c-0.893,0-1.738-0.153-2.538-0.461
			c-1.323-0.492-2.255-1.385-2.793-2.678c-0.538-1.292-0.777-2.761-0.715-4.407c0.062-1.646,0.393-3.354,0.992-5.123
			c0.6-1.769,1.377-3.399,2.331-4.893c0.953-1.492,2.054-2.715,3.3-3.669c1.246-0.953,2.546-1.431,3.9-1.431
			c0.738,0,1.491,0.169,2.261,0.508c0.615,0.276,1.115,0.623,1.5,1.038s0.653,0.885,0.808,1.408s0.186,1.069,0.093,1.638
			c-0.093,0.57-0.339,1.131-0.738,1.685c-0.523,0.739-1.177,1.408-1.962,2.008c-0.784,0.601-1.623,1.162-2.516,1.685
			c-0.893,0.523-1.822,1.001-2.792,1.431c-0.969,0.432-1.9,0.847-2.792,1.247c-0.339,1.907-0.139,3.438,0.6,4.592
			c0.738,1.154,1.861,1.73,3.369,1.73c0.984,0,2.107-0.284,3.369-0.854s2.631-1.477,4.108-2.723
			c1.477-1.246,3.038-2.854,4.685-4.823c1.646-1.969,3.33-4.369,5.054-7.2c0.307-0.431,0.692-0.615,1.153-0.554H647.29z
			 M634.459,583.214c-0.339-0.093-0.662-0.169-0.97-0.23s-0.615-0.093-0.923-0.093c-0.77,0-1.492,0.154-2.169,0.462
			c-0.678,0.308-1.292,0.715-1.847,1.223c-0.554,0.508-1.054,1.107-1.5,1.8s-0.838,1.408-1.177,2.146
			c0.615-0.185,1.339-0.445,2.17-0.784c0.83-0.339,1.661-0.731,2.492-1.178c0.83-0.445,1.615-0.938,2.354-1.477
			c0.738-0.538,1.292-1.1,1.661-1.685L634.459,583.214z"/>
		<path d="M685.966,592.86c-1.446,1.015-2.907,1.961-4.385,2.838c-1.477,0.877-3,1.7-4.569,2.47
			c0.093,1.631-0.115,3.123-0.623,4.477s-1.2,2.516-2.077,3.484c-0.876,0.97-1.869,1.723-2.977,2.262
			c-1.107,0.538-2.231,0.808-3.369,0.808c-1.416,0-2.677-0.4-3.784-1.2c-0.678-0.492-1.093-1.054-1.246-1.685
			c-0.155-0.631-0.139-1.269,0.046-1.915s0.5-1.262,0.946-1.847c0.445-0.584,0.93-1.076,1.453-1.477
			c1.108-0.8,2.262-1.523,3.462-2.169c1.2-0.646,2.446-1.23,3.738-1.754c-0.246-1.292-0.623-2.546-1.131-3.762
			c-0.508-1.215-0.992-2.469-1.453-3.762c-4.339,3.724-9.047,6.755-14.123,9.093c0.245,1.262,0.261,2.508,0.046,3.738
			c-0.216,1.23-0.631,2.354-1.246,3.369c-0.616,1.016-1.424,1.885-2.424,2.607s-2.177,1.224-3.53,1.5
			c-0.492,0.093-1.077,0.139-1.754,0.139c-0.738,0-1.477-0.077-2.216-0.23c-0.738-0.154-1.392-0.416-1.961-0.785
			s-1-0.847-1.292-1.431c-0.293-0.585-0.347-1.323-0.162-2.215c0.216-0.954,0.678-1.801,1.385-2.539
			c0.708-0.738,1.523-1.392,2.446-1.961s1.899-1.069,2.931-1.5c1.03-0.431,1.977-0.831,2.839-1.2
			c-0.462-1.077-1.023-2.139-1.686-3.185c-0.661-1.046-1.314-2.092-1.961-3.139c-0.646-1.046-1.239-2.092-1.777-3.139
			c-0.538-1.046-0.915-2.107-1.131-3.185c-0.215-1.076-0.207-2.176,0.023-3.3c0.23-1.123,0.776-2.284,1.639-3.484
			c0.431-0.615,0.977-1.2,1.639-1.754c0.661-0.554,1.354-1.062,2.076-1.523c0.723-0.461,1.431-0.846,2.123-1.153
			s1.27-0.492,1.731-0.554c0.491-0.062,0.892,0.022,1.199,0.253c0.308,0.231,0.538,0.539,0.692,0.924s0.231,0.8,0.231,1.246
			s-0.062,0.854-0.185,1.223c-0.216,0.801-0.562,1.539-1.039,2.216c-0.478,0.677-1.031,1.3-1.661,1.869
			c-0.631,0.569-1.292,1.093-1.984,1.569c-0.692,0.478-1.393,0.931-2.101,1.361c0.277,0.923,0.692,1.869,1.246,2.839
			c0.554,0.969,1.146,1.961,1.777,2.977c0.63,1.016,1.246,2.03,1.846,3.046c0.601,1.016,1.1,2.016,1.5,3
			c5.107-2.276,9.831-5.169,14.17-8.677c-0.678-1.938-0.894-3.923-0.646-5.954c0.153-0.923,0.462-1.807,0.923-2.653
			c0.462-0.847,0.992-1.593,1.593-2.238c0.6-0.646,1.23-1.161,1.892-1.547c0.662-0.384,1.285-0.577,1.87-0.577
			c0.491,0,0.876,0.124,1.153,0.37c0.8,0.615,1.238,1.384,1.315,2.308c0.076,0.923-0.069,1.892-0.438,2.907
			s-0.877,2.031-1.523,3.046c-0.646,1.016-1.292,1.908-1.938,2.678c0.462,1.631,1.008,3.223,1.639,4.776
			c0.631,1.555,1.131,3.146,1.5,4.777c2.707-1.077,5.23-2.415,7.569-4.016c0.277-0.185,0.554-0.277,0.831-0.277
			c0.276,0,0.568,0.108,0.877,0.323C686.504,592.029,686.52,592.46,685.966,592.86z M642.581,605.968
			c0.738,0.554,1.678,0.831,2.815,0.831c0.769,0,1.554-0.132,2.354-0.393c0.8-0.262,1.523-0.616,2.17-1.062
			c0.646-0.446,1.153-0.985,1.522-1.615c0.369-0.632,0.523-1.315,0.462-2.055c-0.031-0.153-0.054-0.322-0.069-0.507
			s-0.054-0.369-0.115-0.555c-0.861,0.4-1.738,0.77-2.631,1.108s-1.738,0.692-2.538,1.062c-0.801,0.369-1.539,0.784-2.216,1.246
			c-0.677,0.461-1.261,1.016-1.754,1.661V605.968z M654.489,576.706c-0.369,0.554-0.824,1.016-1.362,1.385s-1.084,0.715-1.638,1.038
			s-1.085,0.686-1.593,1.085c-0.508,0.4-0.899,0.908-1.177,1.523c0.492-0.186,1.038-0.446,1.639-0.785
			c0.6-0.338,1.177-0.73,1.73-1.177c0.554-0.445,1.046-0.931,1.477-1.454C653.996,577.799,654.305,577.26,654.489,576.706z
			 M672.674,601.444c0.061-0.246,0.1-0.484,0.115-0.715c0.015-0.231,0.038-0.469,0.069-0.716c-0.432,0.185-1.124,0.462-2.077,0.831
			c-0.954,0.369-1.923,0.784-2.907,1.246c-0.985,0.461-1.854,0.946-2.608,1.454c-0.754,0.507-1.131,0.976-1.131,1.407
			c0.646,0.554,1.446,0.831,2.4,0.831c0.646,0,1.315-0.124,2.008-0.369c0.692-0.247,1.322-0.57,1.893-0.97
			c0.568-0.4,1.062-0.861,1.477-1.385C672.327,602.537,672.581,601.998,672.674,601.444z M675.766,577.86
			c-0.985,0.369-1.77,1.084-2.354,2.146c-0.585,1.062-0.708,2.423-0.369,4.085c0.276-0.308,0.63-0.762,1.062-1.361
			c0.431-0.601,0.822-1.224,1.177-1.869c0.354-0.646,0.6-1.254,0.738-1.823S676.073,578.075,675.766,577.86z"/>
		<path d="M722.104,592.86c-1.601,1.077-3.369,1.984-5.308,2.723s-4.016,1.107-6.23,1.107c-1.662,0-3.323-0.246-4.985-0.738
			c0.708,1.908,1.3,3.946,1.777,6.115c0.477,2.17,0.831,4.377,1.062,6.623s0.315,4.5,0.254,6.762
			c-0.062,2.262-0.277,4.438-0.646,6.531c-0.523,2.799-1.285,4.807-2.284,6.022c-1.001,1.216-2.039,1.823-3.115,1.823
			c-0.985,0-1.908-0.423-2.77-1.27s-1.508-2.008-1.938-3.484c-0.399-1.292-0.646-2.8-0.738-4.523
			c-0.093-1.723-0.069-3.546,0.069-5.469c0.138-1.924,0.354-3.9,0.646-5.931c0.293-2.031,0.623-4,0.992-5.908
			c0.369-1.907,0.762-3.715,1.178-5.423c0.415-1.708,0.791-3.208,1.13-4.5c-0.461-0.738-0.569-1.522-0.322-2.354
			c0.245-0.861,0.769-1.461,1.569-1.8c0.43-1.415,1.015-3.123,1.753-5.123c0.739-2,1.593-4.115,2.562-6.347
			c0.97-2.23,2.031-4.469,3.186-6.715c1.153-2.246,2.384-4.293,3.691-6.139c1.308-1.847,2.669-3.393,4.085-4.639
			c1.415-1.246,2.846-2.008,4.292-2.284c1.077-0.185,1.923,0.062,2.539,0.738c0.615,0.677,0.946,1.654,0.992,2.931
			c0.046,1.277-0.23,2.808-0.831,4.592c-0.6,1.785-1.569,3.678-2.907,5.678c-1.339,2-3.085,4.062-5.238,6.185
			c-2.154,2.123-4.754,4.169-7.801,6.138c-0.03,0.031-0.054,0.047-0.069,0.047s-0.038,0.016-0.068,0.046l-0.323,0.23
			c-0.031,0-0.077,0.031-0.139,0.093c-0.4,1.046-0.777,2.093-1.131,3.139c-0.354,1.046-0.7,2.107-1.038,3.185
			c0.892,0.708,1.938,1.246,3.138,1.615c1.2,0.369,2.493,0.554,3.877,0.554c2.369,0,4.754-0.554,7.154-1.662
			c0.246-0.122,0.538-0.185,0.877-0.185c0.399,0,0.754,0.108,1.062,0.323c0.277,0.185,0.415,0.4,0.415,0.646
			S722.381,592.675,722.104,592.86z M704.611,626.46c0.584-0.185,1.084-0.777,1.5-1.777c0.415-1,0.73-2.284,0.946-3.854
			c0.215-1.569,0.323-3.346,0.323-5.331c0-1.984-0.108-4.038-0.323-6.161c-0.216-2.123-0.547-4.254-0.992-6.393
			c-0.447-2.138-1.023-4.131-1.731-5.977c-0.276,1.077-0.607,2.492-0.992,4.246s-0.738,3.646-1.062,5.677
			c-0.323,2.031-0.577,4.107-0.762,6.23s-0.216,4.092-0.092,5.908c0.122,1.815,0.431,3.393,0.923,4.73
			C702.842,625.099,703.596,625.998,704.611,626.46z M720.673,562.906c-1.139,0.893-2.246,2.077-3.323,3.554s-2.1,3.062-3.069,4.754
			c-0.969,1.692-1.854,3.393-2.653,5.1c-0.801,1.708-1.478,3.239-2.031,4.593c1.292-0.677,2.715-1.653,4.27-2.931
			c1.553-1.276,3.038-2.716,4.453-4.315s2.661-3.277,3.739-5.031c1.076-1.754,1.784-3.431,2.123-5.03
			c0.185-0.893,0.23-1.523,0.138-1.893c-0.092-0.369-0.308-0.554-0.646-0.554c-0.308,0-0.716,0.161-1.224,0.484
			C721.942,561.96,721.35,562.383,720.673,562.906z"/>
		<path d="M742.365,592.353c-1.323,1.354-2.801,2.354-4.431,3c-1.632,0.646-3.369,0.677-5.216,0.092
			c-0.462,0.954-1.046,1.97-1.754,3.046c-0.708,1.078-1.5,2.055-2.377,2.932s-1.815,1.568-2.815,2.076s-2.023,0.67-3.069,0.485
			c-1.415-0.247-2.407-0.932-2.977-2.055c-0.569-1.122-0.847-2.43-0.831-3.923c0.016-1.492,0.262-3.053,0.738-4.685
			c0.478-1.631,1.054-3.1,1.731-4.407c0.676-1.308,1.385-2.331,2.123-3.069s1.385-0.953,1.938-0.646c0-0.707,0.069-1.407,0.207-2.1
			c0.139-0.692,0.361-1.339,0.67-1.938c0.307-0.601,0.707-1.139,1.2-1.615c0.491-0.478,1.076-0.854,1.753-1.131
			c1.077-0.399,2.031-0.308,2.862,0.276c0.83,0.585,1.483,1.5,1.961,2.746c0.477,1.246,0.746,2.739,0.808,4.478
			s-0.154,3.53-0.646,5.377c1.107,0.708,2.23,1.038,3.369,0.992c1.138-0.046,2.215-0.407,3.23-1.085c0.492-0.307,0.97-0.307,1.431,0
			C742.734,591.567,742.765,591.953,742.365,592.353z M724.596,600.106c0.615,0.431,1.253,0.53,1.915,0.3
			c0.662-0.231,1.3-0.646,1.916-1.246c0.615-0.601,1.184-1.293,1.707-2.077s0.954-1.5,1.293-2.146
			c-1.293-0.707-2.4-1.615-3.323-2.723s-1.615-2.354-2.077-3.738c-0.092,0.185-0.285,0.53-0.577,1.038s-0.6,1.107-0.923,1.8
			s-0.631,1.447-0.923,2.262c-0.293,0.815-0.478,1.623-0.554,2.423c-0.077,0.801-0.008,1.562,0.207,2.285
			C723.473,599.006,723.919,599.614,724.596,600.106z M733.181,590.46c0.522-1.969,0.684-3.615,0.484-4.938
			c-0.2-1.322-0.547-2.308-1.038-2.954c-0.493-0.646-1.039-0.938-1.639-0.877c-0.601,0.062-1.055,0.493-1.361,1.293
			c-0.216,0.584-0.263,1.216-0.139,1.892c0.122,0.678,0.369,1.347,0.738,2.008c0.369,0.662,0.814,1.309,1.339,1.938
			C732.088,589.452,732.627,589.998,733.181,590.46z"/>
		<path d="M749.195,603.845c0.338,0.338,0.445,0.861,0.323,1.569c-0.154,0.615-0.478,1.076-0.97,1.385
			c-0.492,0.307-1.046,0.461-1.661,0.461c-0.523,0-1.016-0.115-1.478-0.346c-0.461-0.231-0.83-0.562-1.107-0.992
			c-0.523-0.831-0.731-1.654-0.623-2.47c0.107-0.814,0.323-1.615,0.646-2.4c0.323-0.784,0.638-1.568,0.946-2.354
			c0.307-0.784,0.384-1.562,0.23-2.331c-0.123-0.554-0.369-1.022-0.738-1.407s-0.785-0.73-1.246-1.038
			c-0.462-0.308-0.923-0.615-1.385-0.924c-0.462-0.307-0.847-0.676-1.154-1.107c-0.646-0.892-1.022-2.015-1.131-3.369
			c-0.107-1.354-0.008-2.707,0.301-4.062c0.307-1.354,0.822-2.592,1.546-3.716c0.723-1.122,1.592-1.899,2.607-2.33
			c0.462-0.185,0.923-0.277,1.385-0.277c0.769,0,1.492,0.216,2.169,0.646c0.523,0.369,0.924,0.847,1.2,1.431
			c0.277,0.585,0.399,1.185,0.369,1.8c-0.031,0.708-0.177,1.4-0.438,2.077s-0.585,1.331-0.969,1.961
			c-0.386,0.632-0.808,1.247-1.27,1.847s-0.908,1.162-1.339,1.685c0.431,0.339,0.9,0.639,1.408,0.9s0.961,0.593,1.361,0.992
			c0.708,0.708,1.161,1.453,1.361,2.238c0.2,0.784,0.246,1.569,0.139,2.354c-0.108,0.785-0.3,1.569-0.577,2.354
			c-0.276,0.784-0.523,1.546-0.738,2.284c-0.154,0.523-0.154,1.077,0,1.661C748.519,602.952,748.795,603.444,749.195,603.845z
			 M744.396,588.337c0.431-0.462,0.884-0.97,1.361-1.523c0.477-0.554,0.915-1.114,1.315-1.685c0.399-0.568,0.699-1.138,0.9-1.707
			c0.199-0.569,0.237-1.085,0.115-1.547l-0.277-0.185c-0.77,0-1.446,0.216-2.03,0.646c-0.585,0.432-1.039,0.969-1.362,1.615
			c-0.322,0.646-0.492,1.361-0.508,2.146C743.895,586.883,744.057,587.629,744.396,588.337z"/>
		<path d="M784.087,568.583c-2.523,2.277-4.2,4.354-5.031,6.23c-0.83,1.877-1.038,3.601-0.623,5.17
			c0.416,1.568,1.354,3.022,2.815,4.361c1.461,1.338,3.224,2.607,5.285,3.808c2.061,1.2,4.308,2.369,6.738,3.508
			s4.838,2.292,7.223,3.461c2.385,1.17,4.639,2.377,6.762,3.623s3.885,2.601,5.285,4.062c1.399,1.462,2.346,3.054,2.838,4.777
			c0.492,1.723,0.292,3.63-0.6,5.723c-0.801,1.938-2.07,3.315-3.808,4.131c-1.739,0.815-3.731,1.216-5.978,1.2
			s-4.646-0.377-7.199-1.085c-2.555-0.708-5.055-1.631-7.5-2.769c-2.446-1.139-4.731-2.423-6.854-3.854
			c-2.123-1.431-3.877-2.869-5.262-4.315c-0.554-0.584-0.984-1.177-1.292-1.776s-0.2-1.285,0.323-2.054
			c0.308-0.399,0.6-0.615,0.877-0.646c0.276-0.03,0.546,0.031,0.808,0.185c0.261,0.154,0.522,0.377,0.784,0.669
			c0.262,0.293,0.516,0.562,0.762,0.809c1.293,1.229,2.831,2.438,4.615,3.623c1.784,1.184,3.716,2.253,5.793,3.207
			c2.076,0.953,4.215,1.746,6.415,2.377c2.199,0.631,4.361,1.008,6.484,1.131c2.062,0.123,3.692-0.016,4.893-0.415
			c1.2-0.4,2.008-0.962,2.423-1.685c0.416-0.724,0.469-1.562,0.162-2.516c-0.309-0.954-0.924-1.924-1.847-2.908
			c-1.292-1.354-2.854-2.569-4.685-3.646c-1.831-1.077-3.784-2.101-5.861-3.069c-2.077-0.97-4.216-1.931-6.415-2.885
			c-2.2-0.953-4.323-1.977-6.369-3.069c-2.047-1.092-3.946-2.3-5.7-3.623c-1.754-1.322-3.216-2.83-4.385-4.522
			c-1.446-2.093-2.139-4.262-2.077-6.508s0.669-4.454,1.823-6.623c1.153-2.17,2.73-4.262,4.73-6.277c2-2.015,4.224-3.831,6.67-5.446
			c2.445-1.615,4.984-3,7.615-4.153c2.631-1.154,5.146-1.962,7.546-2.424c2.123-0.399,4.246-0.392,6.369,0.023
			s4.062,1.185,5.815,2.308c1.754,1.124,3.23,2.593,4.431,4.408s1.923,3.923,2.169,6.322c0.246,2.4-0.085,5.07-0.992,8.008
			c-0.907,2.939-2.577,6.085-5.008,9.438c-0.123,0.154-0.361,0.516-0.715,1.085c-0.354,0.569-0.755,1.107-1.2,1.615
			c-0.446,0.508-0.908,0.877-1.385,1.107c-0.478,0.231-0.885,0.101-1.223-0.392c-0.185-0.339-0.27-0.662-0.254-0.97
			c0.015-0.307,0.092-0.6,0.23-0.877c0.139-0.276,0.315-0.546,0.531-0.808c0.215-0.261,0.415-0.515,0.6-0.762
			c2.338-2.799,4.046-5.461,5.123-7.984c1.077-2.522,1.639-4.838,1.685-6.946c0.046-2.107-0.362-3.969-1.223-5.584
			c-0.862-1.616-2.085-2.915-3.67-3.9c-1.585-0.984-3.469-1.607-5.653-1.869c-2.186-0.261-4.555-0.085-7.107,0.53
			c-2.555,0.616-5.255,1.693-8.101,3.231C789.848,563.892,786.979,565.968,784.087,568.583z"/>
		<path d="M849.81,591.06c0.369,0.247,0.445,0.585,0.23,1.016c-0.399,0.738-0.923,1.608-1.568,2.607
			c-0.646,1.001-1.37,1.946-2.17,2.839s-1.661,1.654-2.584,2.284c-0.924,0.632-1.878,0.946-2.862,0.946
			c-0.83,0-1.546-0.269-2.146-0.808c-0.601-0.538-1.101-1.261-1.5-2.169c-0.4-0.907-0.7-1.962-0.9-3.162
			c-0.2-1.199-0.285-2.461-0.254-3.784c-1.661,2.216-3.4,3.923-5.215,5.123c-1.816,1.2-3.462,1.8-4.938,1.8
			c-1.263,0-2.277-0.461-3.047-1.385c-0.77-0.923-1.139-2.384-1.107-4.384c0.03-1.662,0.277-3.301,0.738-4.916
			c0.462-1.615,1-3.207,1.615-4.776c0.185-0.523,0.5-0.9,0.946-1.131c0.446-0.231,0.931-0.3,1.454-0.208h0.093l0.185,0.046h0.092
			c0.522,0.093,0.893,0.309,1.107,0.646c0.215,0.339,0.231,0.77,0.047,1.292c-0.4,1.078-0.793,2.208-1.178,3.393
			s-0.646,2.293-0.784,3.323c-0.139,1.031-0.123,1.938,0.046,2.723c0.169,0.785,0.593,1.315,1.27,1.593
			c0.277,0.123,0.63,0.185,1.062,0.185c0.707,0,1.438-0.223,2.192-0.669c0.754-0.446,1.484-1,2.192-1.662
			c0.707-0.661,1.368-1.368,1.984-2.123c0.615-0.754,1.138-1.423,1.569-2.008c0.185-0.923,0.407-1.838,0.669-2.746
			c0.262-0.907,0.562-1.807,0.9-2.7c0.399-1.045,1.215-1.491,2.446-1.338h0.139l0.276,0.046h0.139
			c0.522,0.062,0.869,0.247,1.038,0.554c0.169,0.309,0.131,0.724-0.115,1.246c-0.585,1.354-1,2.87-1.246,4.547
			c-0.247,1.677-0.315,3.246-0.208,4.707c0.107,1.462,0.393,2.685,0.854,3.669c0.461,0.985,1.092,1.478,1.892,1.478
			c0.708,0,1.53-0.446,2.47-1.339c0.938-0.892,2.022-2.399,3.254-4.522c0.246-0.399,0.538-0.477,0.877-0.231H849.81z"/>
		<path d="M890.147,591.613c0.399,0.309,0.461,0.646,0.185,1.016c-0.894,1.139-1.893,2.192-3,3.162
			c-1.108,0.969-2.247,1.808-3.416,2.515c-1.17,0.709-2.361,1.27-3.577,1.685c-1.216,0.416-2.393,0.623-3.53,0.623
			c-0.985,0-1.908-0.161-2.77-0.484s-1.646-0.838-2.354-1.546c-0.985-0.953-1.631-2.092-1.938-3.415s-0.354-2.678-0.139-4.062
			c-1.046,1.262-2.185,2.5-3.415,3.715c-1.231,1.216-2.492,2.301-3.785,3.254c-1.292,0.954-2.584,1.724-3.877,2.308
			c-1.292,0.585-2.538,0.877-3.738,0.877c-1.508,0-2.846-0.538-4.016-1.615c-1.046-1.016-1.77-2.192-2.169-3.531
			c-0.4-1.338-0.538-2.729-0.415-4.177c0.122-1.445,0.469-2.868,1.038-4.269s1.323-2.654,2.262-3.762s2.015-2.015,3.23-2.724
			c1.216-0.707,2.516-1.076,3.9-1.107c0.8,0,1.431,0.185,1.893,0.554c0.461,0.369,0.791,0.824,0.992,1.361
			c0.199,0.539,0.3,1.116,0.3,1.731s-0.077,1.17-0.23,1.661c-0.124,0.369-0.339,0.554-0.646,0.554c-0.247,0-0.446-0.1-0.6-0.3
			c-0.154-0.199-0.154-0.453,0-0.762c0.122-0.246,0.207-0.499,0.254-0.762c0.046-0.261-0.039-0.484-0.254-0.669
			c-1.108-0.03-2.146,0.208-3.116,0.716c-0.969,0.508-1.808,1.17-2.515,1.984c-0.708,0.815-1.246,1.738-1.615,2.77
			c-0.37,1.031-0.508,2.054-0.416,3.069c0.062,0.738,0.192,1.438,0.393,2.1c0.199,0.662,0.484,1.246,0.854,1.754
			s0.838,0.916,1.408,1.223c0.568,0.309,1.269,0.462,2.1,0.462c1.169,0,2.331-0.308,3.484-0.923
			c1.154-0.615,2.262-1.361,3.323-2.238s2.038-1.808,2.931-2.793c0.893-0.984,1.646-1.861,2.262-2.631
			c0.338-0.431,0.646-0.822,0.923-1.177c0.277-0.354,0.523-0.699,0.739-1.038c0.769-1.385,1.753-2.562,2.953-3.531
			c1.2-0.969,2.539-1.5,4.016-1.592c0.707-0.062,1.315,0.054,1.823,0.346c0.508,0.293,0.915,0.669,1.223,1.131
			s0.523,0.978,0.646,1.546c0.122,0.57,0.153,1.085,0.092,1.547c-0.03,0.492-0.246,0.738-0.646,0.738
			c-0.185,0-0.354-0.076-0.508-0.231c-0.154-0.153-0.216-0.384-0.185-0.691c0.03-0.277-0.008-0.516-0.115-0.716
			c-0.108-0.2-0.331-0.3-0.67-0.3c-0.276,0-0.691,0.092-1.246,0.276c-0.77,0.277-1.477,0.724-2.123,1.339
			c-0.646,0.616-1.169,1.3-1.569,2.054c-0.399,0.755-0.669,1.546-0.808,2.377c-0.138,0.831-0.107,1.623,0.093,2.377
			c0.199,0.754,0.584,1.424,1.153,2.008c0.569,0.585,1.362,1,2.377,1.246c0.308,0.062,0.607,0.115,0.9,0.161
			c0.292,0.047,0.607,0.069,0.946,0.069c1.723,0,3.423-0.484,5.1-1.453c1.677-0.97,3.162-2.192,4.454-3.67
			C889.331,591.414,889.716,591.368,890.147,591.613z"/>
		<path d="M914.886,581.968c0.522,0.092,0.646,0.354,0.369,0.784c-0.801,1.385-1.708,2.815-2.724,4.293
			c-1.015,1.477-2.093,2.923-3.23,4.338c-1.139,1.416-2.339,2.754-3.6,4.016c-1.263,1.262-2.539,2.37-3.831,3.323
			c-1.292,0.954-2.593,1.707-3.9,2.262c-1.308,0.554-2.577,0.83-3.808,0.83c-0.893,0-1.738-0.153-2.538-0.461
			c-1.323-0.492-2.255-1.385-2.793-2.678c-0.538-1.292-0.777-2.761-0.715-4.407c0.062-1.646,0.393-3.354,0.992-5.123
			c0.6-1.769,1.377-3.399,2.331-4.893c0.953-1.492,2.054-2.715,3.3-3.669c1.246-0.953,2.546-1.431,3.9-1.431
			c0.738,0,1.491,0.169,2.261,0.508c0.615,0.276,1.115,0.623,1.5,1.038s0.653,0.885,0.808,1.408s0.186,1.069,0.093,1.638
			c-0.093,0.57-0.339,1.131-0.738,1.685c-0.523,0.739-1.177,1.408-1.962,2.008c-0.784,0.601-1.623,1.162-2.516,1.685
			c-0.893,0.523-1.822,1.001-2.792,1.431c-0.969,0.432-1.9,0.847-2.792,1.247c-0.339,1.907-0.139,3.438,0.6,4.592
			c0.738,1.154,1.861,1.73,3.369,1.73c0.984,0,2.107-0.284,3.369-0.854s2.631-1.477,4.108-2.723
			c1.477-1.246,3.038-2.854,4.685-4.823c1.646-1.969,3.33-4.369,5.054-7.2c0.307-0.431,0.692-0.615,1.153-0.554H914.886z
			 M902.055,583.214c-0.339-0.093-0.662-0.169-0.97-0.23s-0.615-0.093-0.923-0.093c-0.77,0-1.492,0.154-2.169,0.462
			c-0.678,0.308-1.292,0.715-1.847,1.223c-0.554,0.508-1.054,1.107-1.5,1.8s-0.838,1.408-1.177,2.146
			c0.615-0.185,1.339-0.445,2.17-0.784c0.83-0.339,1.661-0.731,2.492-1.178c0.83-0.445,1.615-0.938,2.354-1.477
			c0.738-0.538,1.292-1.1,1.661-1.685L902.055,583.214z"/>
		<path d="M953.562,592.86c-1.446,1.015-2.907,1.961-4.385,2.838c-1.477,0.877-3,1.7-4.569,2.47
			c0.093,1.631-0.115,3.123-0.623,4.477s-1.2,2.516-2.077,3.484c-0.876,0.97-1.869,1.723-2.977,2.262
			c-1.107,0.538-2.231,0.808-3.369,0.808c-1.416,0-2.677-0.4-3.784-1.2c-0.678-0.492-1.093-1.054-1.246-1.685
			c-0.155-0.631-0.139-1.269,0.046-1.915s0.5-1.262,0.946-1.847c0.445-0.584,0.93-1.076,1.453-1.477
			c1.108-0.8,2.262-1.523,3.462-2.169c1.2-0.646,2.446-1.23,3.738-1.754c-0.246-1.292-0.623-2.546-1.131-3.762
			c-0.508-1.215-0.992-2.469-1.453-3.762c-4.339,3.724-9.047,6.755-14.123,9.093c0.245,1.262,0.261,2.508,0.046,3.738
			c-0.216,1.23-0.631,2.354-1.246,3.369c-0.616,1.016-1.424,1.885-2.424,2.607s-2.177,1.224-3.53,1.5
			c-0.492,0.093-1.077,0.139-1.754,0.139c-0.738,0-1.477-0.077-2.216-0.23c-0.738-0.154-1.392-0.416-1.961-0.785
			s-1-0.847-1.292-1.431c-0.293-0.585-0.347-1.323-0.162-2.215c0.216-0.954,0.678-1.801,1.385-2.539
			c0.708-0.738,1.523-1.392,2.446-1.961s1.899-1.069,2.931-1.5c1.03-0.431,1.977-0.831,2.839-1.2
			c-0.462-1.077-1.023-2.139-1.686-3.185c-0.661-1.046-1.314-2.092-1.961-3.139c-0.646-1.046-1.239-2.092-1.777-3.139
			c-0.538-1.046-0.915-2.107-1.131-3.185c-0.215-1.076-0.207-2.176,0.023-3.3c0.23-1.123,0.776-2.284,1.639-3.484
			c0.431-0.615,0.977-1.2,1.639-1.754c0.661-0.554,1.354-1.062,2.076-1.523c0.723-0.461,1.431-0.846,2.123-1.153
			s1.27-0.492,1.731-0.554c0.491-0.062,0.892,0.022,1.199,0.253c0.308,0.231,0.538,0.539,0.692,0.924s0.231,0.8,0.231,1.246
			s-0.062,0.854-0.185,1.223c-0.216,0.801-0.562,1.539-1.039,2.216c-0.478,0.677-1.031,1.3-1.661,1.869
			c-0.631,0.569-1.292,1.093-1.984,1.569c-0.692,0.478-1.393,0.931-2.101,1.361c0.277,0.923,0.692,1.869,1.246,2.839
			c0.554,0.969,1.146,1.961,1.777,2.977c0.63,1.016,1.246,2.03,1.846,3.046c0.601,1.016,1.1,2.016,1.5,3
			c5.107-2.276,9.831-5.169,14.17-8.677c-0.678-1.938-0.894-3.923-0.646-5.954c0.153-0.923,0.462-1.807,0.923-2.653
			c0.462-0.847,0.992-1.593,1.593-2.238c0.6-0.646,1.23-1.161,1.892-1.547c0.662-0.384,1.285-0.577,1.87-0.577
			c0.491,0,0.876,0.124,1.153,0.37c0.8,0.615,1.238,1.384,1.315,2.308c0.076,0.923-0.069,1.892-0.438,2.907
			s-0.877,2.031-1.523,3.046c-0.646,1.016-1.292,1.908-1.938,2.678c0.462,1.631,1.008,3.223,1.639,4.776
			c0.631,1.555,1.131,3.146,1.5,4.777c2.707-1.077,5.23-2.415,7.569-4.016c0.277-0.185,0.554-0.277,0.831-0.277
			c0.276,0,0.568,0.108,0.877,0.323C954.1,592.029,954.115,592.46,953.562,592.86z M910.177,605.968
			c0.738,0.554,1.678,0.831,2.815,0.831c0.769,0,1.554-0.132,2.354-0.393c0.8-0.262,1.523-0.616,2.17-1.062
			c0.646-0.446,1.153-0.985,1.522-1.615c0.369-0.632,0.523-1.315,0.462-2.055c-0.031-0.153-0.054-0.322-0.069-0.507
			s-0.054-0.369-0.115-0.555c-0.861,0.4-1.738,0.77-2.631,1.108s-1.738,0.692-2.538,1.062c-0.801,0.369-1.539,0.784-2.216,1.246
			c-0.677,0.461-1.261,1.016-1.754,1.661V605.968z M922.085,576.706c-0.369,0.554-0.824,1.016-1.362,1.385s-1.084,0.715-1.638,1.038
			s-1.085,0.686-1.593,1.085c-0.508,0.4-0.899,0.908-1.177,1.523c0.492-0.186,1.038-0.446,1.639-0.785
			c0.6-0.338,1.177-0.73,1.73-1.177c0.554-0.445,1.046-0.931,1.477-1.454C921.592,577.799,921.9,577.26,922.085,576.706z
			 M940.27,601.444c0.061-0.246,0.1-0.484,0.115-0.715c0.015-0.231,0.038-0.469,0.069-0.716c-0.432,0.185-1.124,0.462-2.077,0.831
			c-0.954,0.369-1.923,0.784-2.907,1.246c-0.985,0.461-1.854,0.946-2.608,1.454c-0.754,0.507-1.131,0.976-1.131,1.407
			c0.646,0.554,1.446,0.831,2.4,0.831c0.646,0,1.315-0.124,2.008-0.369c0.692-0.247,1.322-0.57,1.893-0.97
			c0.568-0.4,1.062-0.861,1.477-1.385C939.923,602.537,940.177,601.998,940.27,601.444z M943.361,577.86
			c-0.985,0.369-1.77,1.084-2.354,2.146c-0.585,1.062-0.708,2.423-0.369,4.085c0.276-0.308,0.63-0.762,1.062-1.361
			c0.431-0.601,0.822-1.224,1.177-1.869c0.354-0.646,0.6-1.254,0.738-1.823S943.669,578.075,943.361,577.86z"/>
	</g>
</g>
</svg>
